<svg width="40" height="40" viewBox="0 0 40 40" fill="none" xmlns="http://www.w3.org/2000/svg">
<g clip-path="url(#clip0_279_3575)">
<path d="M20 21.1061C20.6892 21.1061 21.25 21.6669 21.25 22.3561C21.25 22.7012 21.5298 22.9811 21.875 22.9811C22.2202 22.9811 22.5 22.7012 22.5 22.3561C22.5 21.1933 21.702 20.2134 20.625 19.9352V19.2311C20.625 18.8859 20.3452 18.6061 20 18.6061C19.6548 18.6061 19.375 18.8859 19.375 19.2311V19.9352C18.298 20.2135 17.5 21.1933 17.5 22.3561C17.5 23.7346 18.6215 24.8561 20 24.8561C20.6892 24.8561 21.25 25.4169 21.25 26.1061C21.25 26.7953 20.6892 27.3561 20 27.3561C19.3108 27.3561 18.75 26.7953 18.75 26.1061C18.75 25.7609 18.4702 25.4811 18.125 25.4811C17.7798 25.4811 17.5 25.7609 17.5 26.1061C17.5 27.2688 18.298 28.2487 19.375 28.5269V29.2311C19.375 29.5762 19.6548 29.8561 20 29.8561C20.3452 29.8561 20.625 29.5762 20.625 29.2311V28.5269C21.702 28.2487 22.5 27.2688 22.5 26.1061C22.5 24.7276 21.3785 23.6061 20 23.6061C19.3108 23.6061 18.75 23.0453 18.75 22.3561C18.75 21.6669 19.3108 21.1061 20 21.1061Z" fill="black"/>
<path d="M20 16.1061C15.5198 16.1061 11.875 19.7509 11.875 24.2311C11.875 28.7112 15.5198 32.3561 20 32.3561C24.4802 32.3561 28.125 28.7112 28.125 24.2311C28.125 19.7509 24.4802 16.1061 20 16.1061ZM20 31.1061C16.2091 31.1061 13.125 28.0219 13.125 24.2311C13.125 20.4402 16.2091 17.3561 20 17.3561C23.7909 17.3561 26.875 20.4402 26.875 24.2311C26.875 28.0219 23.7909 31.1061 20 31.1061Z" fill="black"/>
<path d="M38.0518 13.6061L37.6523 10.4097C37.5229 9.37459 36.5749 8.6417 35.5324 8.78537L34.6277 8.91475L34.04 6.5642C33.7891 5.5599 32.763 4.93146 31.7273 5.21014L1.78039 13.6085C0.790312 13.6579 0 14.479 0 15.4811V32.9811C0 34.0149 0.841172 34.8561 1.875 34.8561H38.125C39.1588 34.8561 40 34.0149 40 32.9811V15.4811C40 14.5128 39.2503 13.6061 38.0518 13.6061ZM35.7062 10.0232C36.053 9.97568 36.3689 10.2204 36.4118 10.5648L36.792 13.6062H10.658L35.7062 10.0232ZM32.0586 6.41545C32.3966 6.32467 32.7424 6.52787 32.8274 6.8674L33.3838 9.09271L11.1941 12.2667L32.0586 6.41545ZM38.75 32.9811C38.75 33.3257 38.4696 33.6061 38.125 33.6061H1.875C1.53039 33.6061 1.25 33.3257 1.25 32.9811V15.4811C1.25 15.1369 1.52969 14.8569 1.87367 14.8562C2.07164 14.8558 -1.24312 14.8561 38.125 14.8561C38.4696 14.8561 38.75 15.1365 38.75 15.4811V32.9811Z" fill="black"/>
<path d="M36.875 17.9811C36.1858 17.9811 35.625 17.4203 35.625 16.7311C35.625 16.3859 35.3452 16.1061 35 16.1061H26.875C26.5298 16.1061 26.25 16.3859 26.25 16.7311C26.25 17.0762 26.5298 17.3561 26.875 17.3561H34.4541C34.6807 18.2333 35.3728 18.9254 36.25 19.1519V29.3101C35.3727 29.5367 34.6807 30.2288 34.4541 31.106H26.875C26.5298 31.106 26.25 31.3858 26.25 31.731C26.25 32.0762 26.5298 32.356 26.875 32.356H35C35.3452 32.356 35.625 32.0762 35.625 31.731C35.625 31.0418 36.1858 30.481 36.875 30.481C37.2202 30.481 37.5 30.2012 37.5 29.856V18.606C37.5 18.2609 37.2202 17.9811 36.875 17.9811Z" fill="black"/>
<path d="M13.125 31.1061H5.54586C5.3193 30.2288 4.62719 29.5368 3.75 29.3102V19.1519C4.62727 18.9254 5.3193 18.2333 5.54586 17.3561H13.125C13.4702 17.3561 13.75 17.0762 13.75 16.7311C13.75 16.3859 13.4702 16.1061 13.125 16.1061H5C4.65484 16.1061 4.375 16.3859 4.375 16.7311C4.375 17.4203 3.81422 17.9811 3.125 17.9811C2.77984 17.9811 2.5 18.2609 2.5 18.6061V29.8561C2.5 30.2012 2.77984 30.4811 3.125 30.4811C3.81422 30.4811 4.375 31.0419 4.375 31.7311C4.375 32.0762 4.65484 32.3561 5 32.3561H13.125C13.4702 32.3561 13.75 32.0762 13.75 31.7311C13.75 31.3859 13.4702 31.1061 13.125 31.1061Z" fill="black"/>
<path d="M5.625 24.2311C5.625 25.2649 6.46617 26.1061 7.5 26.1061C8.53383 26.1061 9.375 25.2649 9.375 24.2311C9.375 23.1973 8.53383 22.3561 7.5 22.3561C6.46617 22.3561 5.625 23.1973 5.625 24.2311ZM8.125 24.2311C8.125 24.5757 7.84461 24.8561 7.5 24.8561C7.15539 24.8561 6.875 24.5757 6.875 24.2311C6.875 23.8865 7.15539 23.6061 7.5 23.6061C7.84461 23.6061 8.125 23.8865 8.125 24.2311Z" fill="black"/>
<path d="M34.375 24.2311C34.375 23.1973 33.5338 22.3561 32.5 22.3561C31.4662 22.3561 30.625 23.1973 30.625 24.2311C30.625 25.2649 31.4662 26.1061 32.5 26.1061C33.5338 26.1061 34.375 25.265 34.375 24.2311ZM31.875 24.2311C31.875 23.8865 32.1554 23.6061 32.5 23.6061C32.8446 23.6061 33.125 23.8865 33.125 24.2311C33.125 24.5757 32.8446 24.8561 32.5 24.8561C32.1554 24.8561 31.875 24.5757 31.875 24.2311Z" fill="black"/>
</g>
<defs>
<clipPath id="clip0_279_3575">
<rect width="40" height="40" fill="white"/>
</clipPath>
</defs>
</svg>
