<svg width="40" height="40" viewBox="0 0 40 40" fill="none" xmlns="http://www.w3.org/2000/svg">
<path d="M37.0644 6.47034H2.93555C1.31688 6.47034 0 7.78721 0 9.40589V30.5941C0 32.2128 1.31688 33.5297 2.93555 33.5297H37.0645C38.6832 33.5297 40.0001 32.2128 40 30.5941V9.40589C40 7.78721 38.6832 6.47034 37.0644 6.47034ZM38.2773 30.5941C38.2773 31.2629 37.7333 31.807 37.0644 31.807H2.93555C2.2668 31.807 1.72266 31.263 1.72266 30.5941V9.40589C1.72266 8.73714 2.26672 8.193 2.93555 8.193H37.0644C37.7332 8.193 38.2773 8.73706 38.2773 9.40589V30.5941Z" fill="black"/>
<path d="M8.55158 24.0891H4.58634C4.11055 24.0891 3.72501 24.4747 3.72501 24.9504C3.72501 25.4261 4.11063 25.8117 4.58634 25.8117H8.55158C9.02736 25.8117 9.41291 25.4261 9.41291 24.9504C9.41291 24.4747 9.02728 24.0891 8.55158 24.0891Z" fill="black"/>
<path d="M16.2696 24.0891H12.3044C11.8286 24.0891 11.4431 24.4747 11.4431 24.9504C11.4431 25.4261 11.8287 25.8117 12.3044 25.8117H16.2696C16.7454 25.8117 17.131 25.4261 17.131 24.9504C17.131 24.4747 16.7453 24.0891 16.2696 24.0891Z" fill="black"/>
<path d="M23.9877 24.0891H20.0225C19.5467 24.0891 19.1611 24.4747 19.1611 24.9504C19.1611 25.4261 19.5468 25.8117 20.0225 25.8117H23.9877C24.4635 25.8117 24.849 25.4261 24.849 24.9504C24.849 24.4747 24.4635 24.0891 23.9877 24.0891Z" fill="black"/>
<path d="M31.7058 24.0891H27.7405C27.2647 24.0891 26.8792 24.4747 26.8792 24.9504C26.8792 25.4261 27.2648 25.8117 27.7405 25.8117H31.7058C32.1814 25.8117 32.5671 25.4261 32.5671 24.9504C32.5671 24.4747 32.1816 24.0891 31.7058 24.0891Z" fill="black"/>
<path d="M18.7422 27.9193H4.58634C4.11055 27.9193 3.72501 28.3049 3.72501 28.7806C3.72501 29.2563 4.11063 29.6419 4.58634 29.6419H18.7422C19.218 29.6419 19.6036 29.2563 19.6036 28.7806C19.6036 28.3049 19.218 27.9193 18.7422 27.9193Z" fill="black"/>
<path d="M9.74635 14.5881H4.58634C4.11055 14.5881 3.72501 14.9737 3.72501 15.4494V19.1801C3.72501 19.6559 4.11063 20.0414 4.58634 20.0414H9.74635C10.2221 20.0414 10.6077 19.6558 10.6077 19.1801V15.4494C10.6077 14.9736 10.2221 14.5881 9.74635 14.5881ZM8.88502 18.3188H5.44767V16.3107H8.88494L8.88502 18.3188Z" fill="black"/>
<path d="M35.4137 11.5065H26.0615C25.5857 11.5065 25.2001 11.8921 25.2001 12.3678C25.2001 12.8435 25.5858 13.2292 26.0615 13.2292H35.4137C35.8894 13.2292 36.2751 12.8435 36.2751 12.3678C36.2751 11.8921 35.8895 11.5065 35.4137 11.5065Z" fill="black"/>
</svg>
