<svg width="55" height="56" viewBox="0 0 55 56" fill="none" xmlns="http://www.w3.org/2000/svg">
<path d="M37.8125 22.0417L17.1875 10.1479" stroke="black" stroke-width="2" stroke-linecap="round" stroke-linejoin="round"/>
<path d="M48.125 37.1667V18.8333C48.1242 18.0296 47.912 17.2402 47.5098 16.5443C47.1075 15.8485 46.5294 15.2706 45.8333 14.8688L29.7917 5.70209C29.0949 5.29982 28.3045 5.08804 27.5 5.08804C26.6955 5.08804 25.9051 5.29982 25.2083 5.70209L9.16667 14.8688C8.4706 15.2706 7.89245 15.8485 7.49022 16.5443C7.08799 17.2402 6.87582 18.0296 6.875 18.8333V37.1667C6.87582 37.9704 7.08799 38.7598 7.49022 39.4557C7.89245 40.1515 8.4706 40.7294 9.16667 41.1313L25.2083 50.2979C25.9051 50.7002 26.6955 50.912 27.5 50.912C28.3045 50.912 29.0949 50.7002 29.7917 50.2979L45.8333 41.1313C46.5294 40.7294 47.1075 40.1515 47.5098 39.4557C47.912 38.7598 48.1242 37.9704 48.125 37.1667Z" stroke="black" stroke-width="2" stroke-linecap="round" stroke-linejoin="round"/>
<path d="M7.49374 16.45L27.5 28.0229L47.5062 16.45" stroke="black" stroke-width="2" stroke-linecap="round" stroke-linejoin="round"/>
<path d="M27.5 51.1V28" stroke="black" stroke-width="2" stroke-linecap="round" stroke-linejoin="round"/>
</svg>
