<svg width="61" height="40" viewBox="0 0 61 40" fill="none" xmlns="http://www.w3.org/2000/svg">
<path d="M60.7747 36.5711C60.7747 38.4648 59.1868 39.9999 57.228 39.9999H4.32134C2.36255 40 0.774658 38.4648 0.774658 36.5711V3.42862C0.774658 1.53499 2.36255 0 4.32134 0H57.228C59.1869 0 60.7747 1.5351 60.7747 3.42862V36.5711Z" fill="white"/>
<path d="M14.0919 20.2302L12.683 13.6971C12.4422 12.7962 11.7414 12.5281 10.8658 12.4927H4.40666L4.34912 12.7912C9.37986 13.9701 12.7086 16.8142 14.0919 20.2302Z" fill="#F79F1A"/>
<path d="M29.0582 12.6245H24.8848L22.2783 27.411H26.4448L29.0582 12.6245Z" fill="#059BBF"/>
<path d="M16.6353 27.3958L23.199 12.6343H18.7821L14.6989 22.7196L14.2631 21.1969C13.4627 19.365 11.1752 16.7283 8.48975 15.0685L12.2222 27.4008L16.6353 27.3958Z" fill="#059BBF"/>
<path d="M40.9617 22.5774C40.9771 20.8986 39.8621 19.6182 37.4593 18.5606C35.999 17.8775 35.109 17.422 35.1196 16.7288C35.1196 16.1164 35.8734 15.4585 37.5065 15.4585C38.873 15.4383 39.8569 15.7267 40.6265 16.0253L41.0036 16.1924L41.5692 12.9891C40.7419 12.6904 39.4488 12.3716 37.8315 12.3716C33.7115 12.3716 30.8115 14.3757 30.7852 17.25C30.759 19.3755 32.8585 20.5597 34.4392 21.268C36.0619 21.9901 36.6064 22.4522 36.596 23.0999C36.5855 24.0904 35.3028 24.542 34.1041 24.542C32.4342 24.542 31.5494 24.3194 30.1773 23.7668L29.6441 23.5301L29.0583 26.8435C30.0314 27.2546 31.8319 27.6139 33.7011 27.6289C38.0824 27.6289 40.9303 25.6503 40.9617 22.5774Z" fill="#059BBF"/>
<path d="M45.919 25.1946C46.3953 25.1946 50.6512 25.1997 51.2587 25.1997C51.3843 25.7145 51.7665 27.4161 51.7665 27.4161H55.635L52.2584 12.6396H49.0391C48.0391 12.6396 47.296 12.9028 46.8561 13.8641L40.6633 27.4161H45.0452C45.0449 27.4161 45.7566 25.5946 45.919 25.1946ZM48.777 18.034C48.7564 18.0744 49.1227 17.1788 49.3322 16.6221L49.6147 17.8972C49.6147 17.8972 50.4106 21.4296 50.578 22.1684H47.1177C47.4633 21.3184 48.777 18.034 48.777 18.034Z" fill="#059BBF"/>
<path d="M57.228 0H4.32134C2.36255 0 0.774658 1.53498 0.774658 3.42862V6.98707H60.7747V3.42862C60.7747 1.53498 59.1869 0 57.228 0Z" fill="#059BBF"/>
<path d="M57.228 40.0003H4.32134C2.36255 40.0003 0.774658 38.4652 0.774658 36.5716V33.0132H60.7747V36.5716C60.7747 38.4652 59.1869 40.0003 57.228 40.0003Z" fill="#F79F1A"/>
<path opacity="0.15" d="M3.29618 36.5711V3.42862C3.29618 1.53499 4.88419 0 6.8431 0H4.32122C2.36255 0 0.774658 1.53499 0.774658 3.42862V36.5713C0.774658 38.4649 2.36255 40 4.32134 40H6.84321C4.88431 40 3.29618 38.4648 3.29618 36.5711Z" fill="#202121"/>
</svg>
