<svg width="60" height="40" viewBox="0 0 60 40" fill="none" xmlns="http://www.w3.org/2000/svg">
<path d="M60 5.00003V35C60 37.7613 57.6641 40 54.7826 40H5.21742C2.3359 40 0 37.7613 0 35V5.00003C0 2.23868 2.3359 0 5.21742 0H54.7827C57.664 0 60 2.23868 60 5.00003Z" fill="#FE7D49"/>
<path d="M60 11.25V35C60 37.7613 57.6641 40 54.7826 40H5.21742C2.3359 40 0 37.7613 0 35V11.25H60Z" fill="#FE5A3A"/>
<path d="M18.171 16.2499H7.91627C7.14623 16.2499 6.52197 15.6517 6.52197 14.9137V7.5862C6.52197 6.84825 7.14623 6.25 7.91627 6.25H18.1709C18.9409 6.25 19.5652 6.84825 19.5652 7.5862V14.9135C19.5654 15.6517 18.941 16.2499 18.171 16.2499Z" fill="#FED76E"/>
<path d="M19.5654 11.25V14.9137C19.5654 15.6517 18.9412 16.2499 18.1711 16.2499H7.91627C7.14623 16.2499 6.52197 15.6517 6.52197 14.9137V11.25H19.5654Z" fill="#FEAF50"/>
<path d="M15.3262 30C15.3262 30.5177 14.8881 30.9375 14.3479 30.9375H6.52174C5.9815 30.9375 5.54346 30.5177 5.54346 30C5.54346 29.4823 5.9815 29.0625 6.52174 29.0625H14.3479C14.8881 29.0626 15.3262 29.4823 15.3262 30ZM27.3913 29.0626H19.5652C19.0249 29.0626 18.5869 29.4824 18.5869 30.0001C18.5869 30.5179 19.0249 30.9376 19.5652 30.9376H27.3913C27.9315 30.9376 28.3696 30.5179 28.3696 30.0001C28.3696 29.4824 27.9315 29.0626 27.3913 29.0626ZM40.4347 29.0626H32.6086C32.0684 29.0626 31.6303 29.4824 31.6303 30.0001C31.6303 30.5179 32.0684 30.9376 32.6086 30.9376H40.4347C40.975 30.9376 41.413 30.5179 41.413 30.0001C41.413 29.4824 40.9751 29.0626 40.4347 29.0626ZM53.4783 29.0626H45.6522C45.1119 29.0626 44.6739 29.4824 44.6739 30.0001C44.6739 30.5179 45.1119 30.9376 45.6522 30.9376H53.4783C54.0185 30.9376 54.4566 30.5179 54.4566 30.0001C54.4566 29.4824 54.0185 29.0626 53.4783 29.0626Z" fill="#A62C18"/>
<path d="M13.6957 13.1251H12.3914C11.3109 13.1251 10.4348 12.2856 10.4348 11.25C10.4348 10.2146 11.3108 9.375 12.3914 9.375H13.6957C14.7761 9.375 15.6522 10.2145 15.6522 11.25C15.6521 12.2855 14.7761 13.1251 13.6957 13.1251Z" fill="#FEE66B"/>
<path d="M46.7608 11.2498C46.7608 11.7675 46.3228 12.1873 45.7825 12.1873H45.6521C45.1119 12.1873 44.6738 11.7675 44.6738 11.2498C44.6738 10.7321 45.1119 10.3123 45.6521 10.3123H45.7825C46.3228 10.3123 46.7608 10.7321 46.7608 11.2498ZM48.8817 8.27574C48.4145 8.01631 47.8156 8.16894 47.5447 8.61703C47.2739 9.06502 47.4332 9.63867 47.9008 9.89832C48.4044 10.178 48.7174 10.6958 48.7174 11.2499C48.7174 11.804 48.4046 12.3219 47.9008 12.6015C47.4334 12.8611 47.274 13.4348 47.5447 13.8828C47.7261 14.1827 48.0546 14.3505 48.3921 14.3505C48.5585 14.3505 48.7271 14.3098 48.8816 14.2241C49.987 13.6103 50.6737 12.4707 50.6737 11.25C50.6737 10.0294 49.9871 8.88948 48.8817 8.27574ZM51.4899 6.10905C51.0226 5.84996 50.424 6.00269 50.1533 6.4509C49.8826 6.899 50.0423 7.47254 50.51 7.73185C51.818 8.45711 52.6305 9.8051 52.6305 11.2497C52.6305 12.6943 51.818 14.0424 50.5101 14.7677C50.0425 15.0272 49.8827 15.6006 50.1534 16.0487C50.3347 16.3491 50.6633 16.5168 51.001 16.5168C51.1673 16.5168 51.3358 16.476 51.4902 16.3905C53.4004 15.3311 54.5871 13.3613 54.5871 11.2497C54.5871 9.13801 53.4002 7.16841 51.4899 6.10905Z" fill="#D4E8FF"/>
</svg>
