<svg width="51" height="51" viewBox="0 0 51 51" fill="none" xmlns="http://www.w3.org/2000/svg">
<g clip-path="url(#clip0_110_1371)">
<path d="M50.1855 40.7933C50.1022 39.8562 49.3691 39.1434 48.5214 39.173C46.9396 39.2256 45.6087 40.0116 44.8373 40.7752C43.9323 40.1531 42.2793 39.147 40.1883 38.4401C40.0406 34.1067 38.6717 30.0815 36.5524 27.0853C37.2284 26.157 37.7143 25.0852 38.0047 23.8739C38.2638 23.9328 38.5295 23.9631 38.796 23.9631C40.763 23.9631 42.3633 22.3628 42.3633 20.3958C42.3633 18.4288 40.763 16.8285 38.796 16.8285C38.4496 16.8285 38.1076 16.8787 37.7797 16.9763C37.2153 14.9662 36.2225 13.0952 34.9037 11.5461C35.7334 11.2898 36.3956 10.8193 36.7726 10.1483C37.4152 9.00384 37.0992 7.55354 35.9259 6.26761C35.8498 6.1846 35.8498 6.08938 35.927 6.00511C37.0992 4.72034 37.4152 3.27005 36.7725 2.12542C35.7759 0.351689 32.7884 -0.0245808 29.9718 1.26849C29.4459 1.50931 28.6392 1.96194 27.8531 2.54065C27.3178 1.98606 26.5677 1.64007 25.7378 1.64007C24.9079 1.64007 24.1579 1.98606 23.6226 2.54065C22.8365 1.96194 22.0298 1.5094 21.5044 1.26878C18.6871 -0.0245808 15.6996 0.351591 14.703 2.12561C14.0604 3.27005 14.3764 4.72024 15.5497 6.00638C15.6258 6.08938 15.6258 6.1846 15.5486 6.26878C14.3764 7.55345 14.0604 9.00374 14.7031 10.1484C15.08 10.8193 15.7421 11.2898 16.5718 11.546C15.2531 13.0951 14.2603 14.966 13.6959 16.9761C13.368 16.8785 13.0261 16.8284 12.6796 16.8284C10.7126 16.8284 9.11234 18.4286 9.11234 20.3956C9.11234 22.3626 10.7126 23.9629 12.6796 23.9629C12.9461 23.9629 13.212 23.9326 13.4709 23.8737C13.7615 25.0853 14.2475 26.1573 14.9237 27.0858C14.4239 27.792 13.9657 28.5531 13.5592 29.3568C13.3767 29.7177 13.5213 30.1583 13.8823 30.3408C13.9882 30.3945 14.1011 30.4199 14.2122 30.4199C14.4797 30.4199 14.7374 30.2728 14.8664 30.0178C15.1857 29.3865 15.5392 28.7849 15.9206 28.2194C16.2951 28.5755 16.7062 28.9032 17.1551 29.2009C17.1231 29.3566 17.0995 29.5136 17.0886 29.6719C17.0158 30.7047 17.3712 31.698 18.0896 32.4687C19.0411 33.4897 20.5226 33.9756 21.9913 33.6583C22.7136 34.9759 24.1683 35.82 25.7379 35.82C27.3076 35.82 28.7621 34.9761 29.4845 33.6584C30.9338 33.9721 32.4225 33.503 33.3864 32.4687C34.1046 31.6981 34.4601 30.7048 34.3873 29.6728C34.3764 29.5141 34.3528 29.3568 34.3207 29.201C34.77 28.9031 35.1814 28.5751 35.5559 28.2188C38.2793 32.2587 39.4813 38.0964 38.2589 43.6559C37.1343 42.5784 35.6336 42.0494 33.9236 42.1367C34.3182 39.9854 34.2723 37.7166 33.7683 35.5031C33.6786 35.1087 33.286 34.8618 32.8915 34.9515C32.4971 35.0413 32.2502 35.4338 32.34 35.8283C33.0577 38.9802 32.7608 42.2478 31.5038 45.029C31.2954 45.4907 31.1892 45.9728 31.1746 46.4502C27.5635 46.2009 23.9148 46.2009 20.3037 46.45C20.2882 45.9655 20.1773 45.4839 19.9716 45.0287C19.6536 44.325 19.3973 43.5901 19.2031 42.8337C19.2027 42.8321 19.2022 42.8304 19.2018 42.8287C18.6298 40.5978 18.5999 38.1809 19.1355 35.8281C19.2252 35.4337 18.9784 35.0411 18.5839 34.9514C18.1896 34.8616 17.797 35.1085 17.7073 35.503C17.2034 37.7166 17.1575 39.9855 17.5521 42.1367C15.8419 42.0494 14.3413 42.5785 13.2168 43.6559C12.5619 40.6756 12.5801 37.5204 13.2693 34.4926C13.3782 34.0141 13.505 33.536 13.6463 33.0716C13.7641 32.6846 13.5457 32.2754 13.1587 32.1577C12.7716 32.0398 12.3625 32.2583 12.2449 32.6452C12.0935 33.1429 11.9576 33.655 11.841 34.1674C11.5194 35.5801 11.3365 37.0122 11.2877 38.4397C9.19711 39.1464 7.54418 40.1523 6.63842 40.7749C5.86605 40.0107 4.53558 39.2253 2.95453 39.1727C2.10336 39.1431 1.37357 39.8559 1.29037 40.7933C1.10687 42.8685 1.33314 45.7941 1.86664 48.2465C2.03373 49.0156 2.49555 49.6656 3.16683 50.0767C3.62435 50.3569 4.13646 50.5003 4.65756 50.5003C4.90355 50.5003 5.1516 50.4683 5.39672 50.4036C8.08353 49.696 10.8038 49.1242 13.4911 48.6987C14.1822 49.6938 15.3267 50.3103 16.5648 50.3103C17.0973 50.3103 17.615 50.1984 18.1034 49.9777C18.9983 49.5733 19.6849 48.8496 20.0433 47.9375C23.8254 47.6585 27.6524 47.6586 31.4345 47.9377C31.7787 48.8131 32.4496 49.561 33.3722 49.978C33.86 50.1988 34.3779 50.3108 34.9115 50.3108C36.1498 50.3108 37.2943 49.694 37.9847 48.6986C38.8672 48.8378 39.7534 48.9922 40.6259 49.1608C40.6729 49.1699 40.7196 49.1742 40.7657 49.1742C41.1095 49.1742 41.4163 48.9308 41.4839 48.5806C41.5607 48.1834 41.3009 47.7992 40.9037 47.7226C40.1611 47.5791 39.4085 47.4456 38.6568 47.3227C39.5858 45.0147 40.1008 42.5264 40.1889 39.9947C42.0057 40.672 43.4165 41.5645 44.1497 42.0811C44.6629 42.4435 45.347 42.3718 45.7774 41.9095C46.323 41.321 47.3431 40.6777 48.5704 40.6367C48.6034 40.6338 48.7098 40.7353 48.7264 40.9224C48.8979 42.8625 48.6826 45.6153 48.1778 47.9356C48.0963 48.3105 47.8712 48.6273 47.544 48.8277C47.2146 49.0294 46.8269 49.0863 46.4517 48.9872C45.7227 48.7957 44.9771 48.6099 44.2356 48.4349C43.8416 48.3418 43.4474 48.5858 43.3545 48.9794C43.2616 49.3731 43.5054 49.7676 43.8991 49.8605C44.6287 50.0326 45.3621 50.2156 46.0787 50.4037C46.3241 50.4685 46.5721 50.5004 46.8182 50.5004C47.3393 50.5004 47.8515 50.357 48.3089 50.0769C48.9802 49.6658 49.442 49.0158 49.6091 48.2468C50.1427 45.7944 50.369 42.8688 50.1855 40.7933ZM30.5824 2.59993C32.3785 1.77542 34.8379 1.67229 35.4954 2.8427C35.8137 3.4094 35.5705 4.22249 34.8461 5.01653C34.2607 5.6552 34.2607 6.61849 34.845 7.25599C35.5704 8.0512 35.8137 8.86438 35.4955 9.43089C34.8963 10.4973 31.9621 11.0246 28.5803 8.44798C28.7393 7.85022 28.6559 7.51751 28.6791 6.11507C28.9504 6.07903 29.1951 6.07093 29.4256 6.08987C30.0006 6.13811 30.6743 6.43577 30.8831 6.99231C30.9934 7.28626 31.2725 7.46761 31.5689 7.46761C31.6543 7.46761 31.7414 7.45257 31.8261 7.42073C32.2048 7.27864 32.3966 6.85638 32.2544 6.47776C31.873 5.46126 30.8106 4.73616 29.5474 4.6303C29.2683 4.60716 28.9825 4.61067 28.6791 4.64065V4.58138C28.6791 4.32024 28.6445 4.06712 28.5803 3.82591C29.3694 3.22454 30.1817 2.78343 30.5824 2.59993ZM28.5452 12.45C28.2168 12.3201 27.9175 12.1482 27.6664 11.9424C27.3891 11.7155 27.0084 11.6533 26.6732 11.7803C26.3397 11.9068 26.0971 12.2036 26.0405 12.5536C25.9167 13.3078 25.9857 14.116 26.2279 14.8638C24.4602 14.5083 22.9274 13.6215 22.0309 12.4106C21.7328 12.0074 21.4814 11.5698 21.2774 11.1052C22.0727 10.7661 22.9439 10.2326 23.6225 9.73304C24.1578 10.2876 24.9078 10.6336 25.7377 10.6336C26.5676 10.6336 27.3177 10.2876 27.853 9.73304C28.0291 9.86272 28.2061 9.98616 28.3809 10.1021C28.2742 10.8848 28.3309 11.6869 28.5452 12.45ZM25.7378 3.10481C26.552 3.10481 27.2143 3.76712 27.2143 4.58128V7.69261C27.2143 8.50677 26.5519 9.16907 25.7378 9.16907C24.9237 9.16907 24.2614 8.50677 24.2614 7.69261V4.58128C24.2614 3.76712 24.9237 3.10481 25.7378 3.10481ZM15.9802 9.43099C15.662 8.86429 15.9051 8.0512 16.6295 7.25716C17.215 6.61848 17.215 5.65511 16.6307 5.0178C15.9052 4.22249 15.662 3.4094 15.9801 2.8429C16.6377 1.67229 19.0972 1.77532 20.894 2.60032C21.2941 2.78352 22.1063 3.22464 22.8953 3.82581C22.8312 4.06702 22.7965 4.32015 22.7965 4.58128V4.64056C22.4931 4.61048 22.2071 4.60696 21.9277 4.6303C20.6651 4.73606 19.6027 5.46126 19.2212 6.47776C19.079 6.85647 19.2708 7.27864 19.6495 7.42073C19.7343 7.45257 19.8212 7.46761 19.9068 7.46761C20.2033 7.46761 20.4823 7.28626 20.5925 6.99231C20.8014 6.43577 21.475 6.13802 22.0495 6.08987C22.2803 6.07073 22.525 6.07884 22.7965 6.11487V7.69251C22.7965 7.95364 22.8312 8.20677 22.8953 8.44788C19.5143 11.0241 16.5794 10.4977 15.9802 9.43099ZM29.7293 32.2121C29.1345 32.064 28.5083 32.3437 28.2405 32.8773C27.7896 33.7752 26.8073 34.3553 25.7378 34.3553C24.6684 34.3553 23.6861 33.7751 23.2352 32.8773C22.9672 32.3436 22.3412 32.0638 21.7502 32.2111C20.8061 32.4409 19.8036 32.1597 19.161 31.4701C18.7698 31.0503 18.5554 30.5253 18.5452 29.9736C20.4818 30.8694 22.8943 31.3241 25.7378 31.3241C28.5814 31.3241 30.9939 30.8694 32.9305 29.9736C32.9204 30.5249 32.706 31.0501 32.3146 31.4701C31.6654 32.1669 30.6577 32.4381 29.7293 32.2121ZM25.7378 29.8594C21.2293 29.8594 15.6626 28.631 14.7469 22.7785C14.7102 22.5438 14.5619 22.3413 14.3489 22.2358C14.136 22.1302 13.8851 22.1343 13.6758 22.2471C13.3666 22.4138 13.0314 22.4983 12.6796 22.4983C11.5203 22.4983 10.5772 21.5551 10.5772 20.3957C10.5772 19.2365 11.5203 18.2932 12.6796 18.2932C13.0786 18.2932 13.4673 18.4061 13.8037 18.6196C14.006 18.748 14.2582 18.7694 14.4792 18.6767C14.7002 18.584 14.862 18.3893 14.9122 18.1551C15.4364 15.7168 16.6578 13.4618 18.3608 11.7703C18.8497 11.7569 19.3609 11.689 19.8803 11.5661C20.137 12.1783 20.4625 12.7534 20.8534 13.2819C22.1221 14.9957 24.3715 16.1773 26.8691 16.4423C26.9052 16.4462 26.9412 16.4482 26.977 16.4482C27.3053 16.4482 27.6141 16.2867 27.8012 16.011C28.0113 15.7015 28.0329 15.3033 27.8568 14.9697C27.6252 14.5349 27.4872 14.0446 27.4528 13.5555C27.9566 13.83 28.5229 14.0218 29.1249 14.1196C29.4919 14.1803 29.86 14.0337 30.0857 13.7373C30.3113 13.4409 30.3543 13.0471 30.1975 12.7082C29.9355 12.145 29.7996 11.5328 29.7936 10.9206C30.812 11.4188 31.9764 11.739 33.1146 11.7704C34.8177 13.462 36.0391 15.717 36.5632 18.1553C36.6136 18.3895 36.7753 18.5843 36.9962 18.6769C37.2171 18.7695 37.4695 18.7481 37.6717 18.6198C38.0081 18.4063 38.3969 18.2934 38.7958 18.2934C39.9551 18.2934 40.8983 19.2366 40.8983 20.3959C40.8983 21.5552 39.9551 22.4985 38.7958 22.4985C38.4441 22.4985 38.1088 22.414 37.7996 22.2473C37.5904 22.1345 37.3394 22.1303 37.1266 22.236C36.9136 22.3416 36.7653 22.544 36.7286 22.7787C35.813 28.6309 30.2463 29.8594 25.7378 29.8594ZM5.02328 48.9875C4.64877 49.0863 4.26107 49.0295 3.93168 48.8278C3.60443 48.6274 3.37933 48.3106 3.29779 47.9356C2.79301 45.6155 2.57767 42.8626 2.74926 40.9229C2.76576 40.7366 2.87172 40.6369 2.90492 40.6369H2.90541C4.13256 40.6779 5.15267 41.3212 5.69916 41.9108C6.12846 42.3721 6.81264 42.4439 7.32514 42.0818C8.05902 41.5647 9.46996 40.6721 11.287 39.9948C11.3748 42.5264 11.8897 45.0148 12.8184 47.3228C10.2275 47.748 7.6099 48.3063 5.02328 48.9875ZM16.5647 48.8458C15.6715 48.8458 14.8568 48.3201 14.4891 47.5067C14.1752 46.8121 13.9039 46.0972 13.6739 45.3672C14.8782 43.6398 16.6856 43.492 17.9046 43.6373C18.102 44.3213 18.3458 44.9885 18.6368 45.6323C19.3136 47.13 18.2217 48.8458 16.5647 48.8458ZM34.9114 48.8461C33.2696 48.8461 32.1579 47.1397 32.8386 45.6323C33.1295 44.9885 33.3734 44.3213 33.5707 43.6373C34.7897 43.4919 36.5972 43.6396 37.8016 45.3669C37.5713 46.0971 37.2999 46.8121 36.9859 47.507C36.6188 48.3204 35.8044 48.8461 34.9114 48.8461Z" fill="#ACACAC"/>
<path d="M21.0186 17.8342C20.6141 17.8342 20.2861 18.1621 20.2861 18.5666V18.9956C20.2861 19.4001 20.6141 19.7281 21.0186 19.7281C21.423 19.7281 21.751 19.4001 21.751 18.9956V18.5666C21.751 18.1621 21.423 17.8342 21.0186 17.8342Z" fill="#ACACAC"/>
<path d="M30.457 17.8342C30.0525 17.8342 29.7246 18.1621 29.7246 18.5666V18.9956C29.7246 19.4001 30.0525 19.7281 30.457 19.7281C30.8615 19.7281 31.1895 19.4001 31.1895 18.9956V18.5666C31.1895 18.1621 30.8615 17.8342 30.457 17.8342Z" fill="#ACACAC"/>
<path d="M27.7225 22.6548C27.1864 23.2007 26.4815 23.5013 25.7377 23.5013C24.994 23.5013 24.2891 23.2007 23.753 22.6548C23.4697 22.3663 23.0059 22.362 22.7172 22.6455C22.4287 22.9289 22.4245 23.3927 22.708 23.6813C23.5217 24.5098 24.5977 24.9661 25.7377 24.9661C26.8776 24.9661 27.9537 24.5098 28.7673 23.6813C29.0508 23.3927 29.0466 22.929 28.7581 22.6455C28.4697 22.362 28.0059 22.3662 27.7225 22.6548Z" fill="#ACACAC"/>
</g>
<defs>
<clipPath id="clip0_110_1371">
<rect width="50" height="50" fill="white" transform="translate(0.738281 0.50061)"/>
</clipPath>
</defs>
</svg>
