<svg width="43" height="43" viewBox="0 0 43 43" fill="none" xmlns="http://www.w3.org/2000/svg">
<g clip-path="url(#clip0_64_1104)">
<path d="M39.3309 19.8045H37.5585C37.1721 19.8045 36.8592 20.1174 36.8592 20.5038C36.8592 20.8902 37.1721 21.2031 37.5585 21.2031H39.3309C39.7173 21.2031 40.0302 20.8902 40.0302 20.5038C40.0323 20.1174 39.7173 19.8045 39.3309 19.8045ZM33.6399 30.6657C33.3669 30.3927 32.9238 30.3927 32.6508 30.6657C32.3778 30.9387 32.3778 31.3818 32.6508 31.6548L33.9045 32.9085C34.041 33.045 34.2195 33.1143 34.4001 33.1143C34.5786 33.1143 34.7592 33.045 34.8957 32.9085C35.1687 32.6355 35.1687 32.1924 34.8957 31.9194L33.6399 30.6657ZM11.0754 8.09908C10.8024 7.82608 10.3593 7.82608 10.0863 8.09908C9.81334 8.37208 9.81334 8.81518 10.0863 9.08818L11.34 10.3419C11.4765 10.4784 11.655 10.5477 11.8356 10.5477C12.0141 10.5477 12.1947 10.4784 12.3312 10.3419C12.6042 10.0689 12.6042 9.62578 12.3312 9.35278L11.0754 8.09908ZM36.4602 6.53248C32.7285 2.80078 27.7662 0.744877 22.4889 0.744877C17.2116 0.744877 12.2493 2.80078 8.51764 6.53248C6.47854 8.57158 4.94765 10.9614 3.95855 13.6389C3.63725 13.7943 3.43985 13.9854 3.40835 14.0169C3.39785 14.0274 3.38945 14.0358 3.38315 14.0421C3.37055 14.0526 3.35795 14.0631 3.34745 14.0757C0.634246 16.7889 -0.323354 20.3085 0.577546 24.2544C1.41125 27.9042 3.80315 31.7829 7.49494 35.4747C11.1867 39.1665 15.0675 41.5605 18.7152 42.3942C19.6791 42.6147 20.6157 42.7239 21.5229 42.7239C24.3306 42.7239 26.8443 41.676 28.896 39.6243L28.9044 39.6159C28.9149 39.6054 28.9233 39.5949 28.9317 39.5865C28.9359 39.5823 28.9401 39.5781 28.9443 39.5739C28.9464 39.5718 28.9464 39.5718 28.9485 39.5697C28.9926 39.5256 29.1648 39.3429 29.3139 39.051C32.0082 38.0619 34.4106 36.5268 36.4602 34.4772C40.1919 30.7455 42.2478 25.7832 42.2478 20.5059C42.2478 15.2286 40.1919 10.2642 36.4602 6.53248ZM27.9636 38.5743C27.9615 38.5764 27.9615 38.5764 27.9594 38.5785C27.9573 38.5785 27.9636 38.5743 27.9636 38.5743ZM28.1337 38.2341C28.0917 38.4252 27.972 38.5659 27.9552 38.5848C27.9384 38.6016 27.9237 38.6184 27.909 38.6352C23.1987 43.3455 15.7563 41.7558 8.48614 34.4877C4.98124 30.9828 2.71745 27.3372 1.94255 23.9457C1.14245 20.445 1.94885 17.4567 4.33865 15.0669C4.34075 15.0648 4.34285 15.0627 4.34495 15.0606C4.36175 15.0459 4.37855 15.0291 4.39535 15.0123C4.39745 15.0102 4.60325 14.8296 4.85735 14.8296C5.05685 14.8296 5.27105 14.943 5.49575 15.1677L9.66634 19.3383C10.2186 19.8906 10.0149 20.2854 9.84274 20.4723L8.83684 21.4782C7.96954 22.3455 7.48235 23.4816 7.46555 24.6807C7.44665 25.8945 7.91285 27.039 8.77804 27.9042L15.0717 34.2C15.9264 35.0547 17.0541 35.523 18.2553 35.523H18.3036C19.5111 35.5104 20.6535 35.0274 21.5208 34.1601L22.5225 33.1584C22.5393 33.1437 22.6716 33.0408 22.8459 32.9967C23.0118 32.9547 23.2743 32.94 23.6376 33.3033L27.8187 37.4844C28.2093 37.8771 28.1526 38.1459 28.1337 38.2341ZM35.4711 33.486C33.7239 35.2332 31.7016 36.5793 29.4462 37.4991C29.3433 37.182 29.1501 36.8397 28.8036 36.4932L24.6225 32.3121C23.4591 31.1508 22.1487 31.575 21.5523 32.1441C21.5481 32.1483 21.5439 32.1525 21.5397 32.1567L20.5275 33.1689C19.2633 34.4331 17.2998 34.4499 16.0587 33.2088L9.76504 26.913C8.53445 25.6824 8.55964 23.7294 9.82384 22.4652L10.836 21.4551C10.8969 21.3963 11.424 20.8461 11.424 20.0124C11.424 19.6029 11.2917 18.9813 10.6554 18.345L6.48484 14.1744C6.14254 13.8321 5.80235 13.6389 5.49995 13.536C6.41975 11.2869 7.76374 9.26668 9.50884 7.52158C16.6677 0.362677 28.3143 0.362677 35.4732 7.52158C38.9403 10.9887 40.8513 15.6003 40.8513 20.5038C40.8471 25.4073 38.9382 30.0189 35.4711 33.486ZM33.9045 8.09908L32.6508 9.35278C32.3778 9.62578 32.3778 10.0689 32.6508 10.3419C32.7873 10.4784 32.9658 10.5477 33.1464 10.5477C33.3249 10.5477 33.5055 10.4784 33.642 10.3419L34.8957 9.08818C35.1687 8.81518 35.1687 8.37208 34.8957 8.09908C34.6206 7.82608 34.1775 7.82608 33.9045 8.09908ZM23.1882 3.66178C23.1882 3.27538 22.8753 2.96248 22.4889 2.96248C22.1025 2.96248 21.7896 3.27538 21.7896 3.66178V5.43418C21.7896 5.82058 22.1025 6.13348 22.4889 6.13348C22.8753 6.13348 23.1882 5.82058 23.1882 5.43418V3.66178ZM20.1999 14.6259H16.3653C15.9768 14.6259 15.6618 14.9409 15.6618 15.3294C15.6618 15.7179 15.9768 16.0329 16.3653 16.0329H20.1999C20.3931 16.0329 20.5506 16.1904 20.5506 16.3836V18.8595C20.5506 19.0527 20.3931 19.2102 20.1999 19.2102H17.2095C16.2414 19.2102 15.4518 19.9977 15.4518 20.9679V23.2716C15.4518 24.2397 16.2393 25.0293 17.2095 25.0293H21.0441C21.4326 25.0293 21.7476 24.7143 21.7476 24.3258C21.7476 23.9373 21.4326 23.6223 21.0441 23.6223H17.2095C17.0163 23.6223 16.8588 23.4648 16.8588 23.2716V20.9679C16.8588 20.7747 17.0163 20.6172 17.2095 20.6172H20.1999C21.168 20.6172 21.9576 19.8297 21.9576 18.8595V16.3836C21.9576 15.4155 21.168 14.6259 20.1999 14.6259ZM29.9607 21.1401H28.9884V15.3294C28.9884 15.0228 28.7889 14.7498 28.4949 14.6574C28.2009 14.565 27.8817 14.6742 27.7074 14.9262L23.1714 21.4404C23.0223 21.6546 23.0034 21.936 23.1252 22.167C23.247 22.4001 23.4864 22.545 23.7489 22.545H27.5814V24.3237C27.5814 24.7122 27.8964 25.0272 28.2849 25.0272C28.6734 25.0272 28.9884 24.7122 28.9884 24.3237V22.545H29.9607C30.3492 22.545 30.6642 22.23 30.6642 21.8415C30.6642 21.4551 30.3492 21.1401 29.9607 21.1401ZM27.5814 21.1401H25.095L27.5814 17.5701V21.1401Z" fill="#ABABAB"/>
</g>
<defs>
<clipPath id="clip0_64_1104">
<rect width="42" height="42" fill="white" transform="translate(0.248047 0.734375)"/>
</clipPath>
</defs>
</svg>
