<svg width="66" height="66" viewBox="0 0 66 66" fill="none" xmlns="http://www.w3.org/2000/svg">
<g clip-path="url(#clip0_30_3478)">
<path d="M22.6807 56.2134C19.7227 56.2134 17.3105 53.8013 17.3105 50.8433C17.3105 47.8853 19.7227 45.4731 22.6807 45.4731C25.6387 45.4731 28.0508 47.8853 28.0508 50.8433C28.0508 53.8013 25.6387 56.2134 22.6807 56.2134ZM22.6807 46.7554C20.4209 46.7554 18.5801 48.5962 18.5801 50.856C18.5801 53.1157 20.4336 54.9438 22.6807 54.9438C24.9277 54.9438 26.7813 53.103 26.7813 50.8433C26.7813 48.5835 24.9404 46.7554 22.6807 46.7554Z" fill="#0D775E"/>
<path d="M54.0381 56.2134C51.0801 56.2134 48.668 53.8013 48.668 50.8433C48.668 47.8853 51.0801 45.4731 54.0381 45.4731C56.9961 45.4731 59.4082 47.8853 59.4082 50.8433C59.4082 53.8013 56.9961 56.2134 54.0381 56.2134ZM54.0381 46.7554C51.7783 46.7554 49.9375 48.5962 49.9375 50.856C49.9375 53.1157 51.791 54.9438 54.0381 54.9438C56.2852 54.9438 58.1387 53.103 58.1387 50.8433C58.1387 48.5835 56.2979 46.7554 54.0381 46.7554Z" fill="#0D775E"/>
<path d="M54.0381 53.2808C52.7051 53.2808 51.6133 52.189 51.6133 50.856C51.6133 49.5229 52.7051 48.4312 54.0381 48.4312C55.3711 48.4312 56.4629 49.5229 56.4629 50.856C56.4629 52.189 55.3838 53.2808 54.0381 53.2808ZM54.0381 49.688C53.4033 49.688 52.8828 50.2085 52.8828 50.8433C52.8828 51.478 53.4033 51.9985 54.0381 51.9985C54.6729 51.9985 55.1934 51.478 55.1934 50.8433C55.1934 50.2085 54.6855 49.688 54.0381 49.688Z" fill="#0D775E"/>
<path d="M22.6807 53.2808C21.3477 53.2808 20.2559 52.189 20.2559 50.856C20.2559 49.5229 21.3477 48.4312 22.6807 48.4312C24.0137 48.4312 25.1055 49.5229 25.1055 50.856C25.1055 52.189 24.0264 53.2808 22.6807 53.2808ZM22.6807 49.688C22.0459 49.688 21.5254 50.2085 21.5254 50.8433C21.5254 51.478 22.0459 51.9985 22.6807 51.9985C23.3154 51.9985 23.8359 51.478 23.8359 50.8433C23.8359 50.2085 23.3281 49.688 22.6807 49.688Z" fill="#0D775E"/>
<path d="M43.7041 40.6235H13.1084C12.7529 40.6235 12.4736 40.3442 12.4736 39.9888V14.3315C12.4736 13.9761 12.7529 13.6968 13.1084 13.6968H43.7041C44.0596 13.6968 44.3389 13.9761 44.3389 14.3315V39.9888C44.3389 40.3442 44.0596 40.6235 43.7041 40.6235ZM13.7559 39.354H43.082V14.9663H13.7559V39.354Z" fill="#0D775E"/>
<path d="M18.1611 50.1196H9.76953C9.41406 50.1196 9.13477 49.8403 9.13477 49.4849V45.9683H10.4043V48.8501H18.1611V50.1196Z" fill="#0D775E"/>
<path d="M47.0557 50.1196H27.2129V48.8501H46.4209V44.064H9.76953V42.7944H47.0557C47.4111 42.7944 47.6904 43.0737 47.6904 43.4292V49.4849C47.6904 49.8403 47.4111 50.1196 47.0557 50.1196Z" fill="#0D775E"/>
<path d="M64.6133 50.1196H58.5703V48.8501H63.9785V37.4243L58.9258 25.7446H47.6904V48.8501H49.5059V50.1196H47.0557C46.7002 50.1196 46.4209 49.8403 46.4209 49.4849V25.1099C46.4209 24.7544 46.7002 24.4751 47.0557 24.4751H59.3447C59.5986 24.4751 59.8271 24.6274 59.9287 24.856L65.1973 37.0435C65.2354 37.1196 65.248 37.2085 65.248 37.2974V49.4849C65.248 49.8403 64.9687 50.1196 64.6133 50.1196Z" fill="#0D775E"/>
<path d="M60.9951 38.3257H56.1455C55.917 38.3257 55.7139 38.2114 55.5996 38.0083L54.127 35.4819H49.7852C49.4297 35.4819 49.1504 35.2026 49.1504 34.8472V28.0298C49.1504 27.6743 49.4297 27.395 49.7852 27.395H57.6309C57.8848 27.395 58.1133 27.5474 58.2148 27.7759L61.5791 35.5581C61.6172 35.6343 61.6299 35.7231 61.6299 35.812V37.6909C61.6299 38.0337 61.3506 38.3257 60.9951 38.3257ZM56.5137 37.0562H60.3604V35.939L57.2119 28.6646H50.4199V34.2124H54.4951C54.7236 34.2124 54.9268 34.3267 55.041 34.5298L56.5137 37.0562Z" fill="#0D775E"/>
<path d="M49.7598 36.6626H52.8066V37.9321H49.7598V36.6626Z" fill="#0D775E"/>
<path d="M64.6133 46.146H61.8203C61.4648 46.146 61.1855 45.8667 61.1855 45.5112V41.3599C61.1855 41.0044 61.4648 40.7251 61.8203 40.7251H64.6133C64.9687 40.7251 65.248 41.0044 65.248 41.3599V45.5112C65.248 45.854 64.9687 46.146 64.6133 46.146ZM62.4551 44.8765H63.9785V41.9946H62.4551V44.8765Z" fill="#0D775E"/>
<path d="M0.248047 13.6841H9.76953V14.9536H0.248047V13.6841Z" fill="#0D775E"/>
<path d="M2.78711 18.1274H9.76953V19.397H2.78711V18.1274Z" fill="#0D775E"/>
<path d="M6.21484 22.5708H9.76953V23.8403H6.21484V22.5708Z" fill="#0D775E"/>
<path d="M47.0557 44.064H9.76953C9.41406 44.064 9.13477 43.7847 9.13477 43.4292V10.8911C9.13477 10.5356 9.41406 10.2563 9.76953 10.2563H47.0557C47.4111 10.2563 47.6904 10.5356 47.6904 10.8911V22.5708H46.4209V11.5259H10.4043V42.8071H46.4209V25.1099H47.6904V43.4292C47.6904 43.7847 47.4111 44.064 47.0557 44.064Z" fill="#0D775E"/>
</g>
<defs>
<clipPath id="clip0_30_3478">
<rect width="65" height="65" fill="white" transform="translate(0.248047 0.734863)"/>
</clipPath>
</defs>
</svg>
