<svg width="25" height="25" viewBox="0 0 25 25" fill="none" xmlns="http://www.w3.org/2000/svg">
<path d="M19.8671 2.9385L19.8671 14.9001L19.3871 14.9001C19.0052 14.9001 18.6389 15.0518 18.3688 15.3219C18.0988 15.5919 17.9471 15.9582 17.9471 16.3401L17.9471 18.2601C17.9471 18.642 18.0988 19.0083 18.3688 19.2783C18.6389 19.5484 19.0052 19.7001 19.3871 19.7001L19.8671 19.7001L19.8671 21.9369C19.8671 22.0642 19.9176 22.1863 20.0077 22.2763C20.0977 22.3663 20.2198 22.4169 20.3471 22.4169C20.4744 22.4169 20.5965 22.3663 20.6865 22.2763C20.7765 22.1863 20.8271 22.0642 20.8271 21.9369L20.8271 19.7001L21.3071 19.7001C21.689 19.7001 22.0553 19.5484 22.3253 19.2783C22.5954 19.0083 22.7471 18.642 22.7471 18.2601L22.7471 16.3401C22.7471 15.9582 22.5954 15.5919 22.3253 15.3219C22.0553 15.0518 21.689 14.9001 21.3071 14.9001L20.8271 14.9001L20.8271 2.9385C20.8271 2.81119 20.7765 2.6891 20.6865 2.59908C20.5965 2.50907 20.4744 2.4585 20.3471 2.4585C20.2198 2.4585 20.0977 2.50907 20.0077 2.59908C19.9176 2.6891 19.8671 2.81119 19.8671 2.9385ZM21.3071 15.8601C21.4344 15.8601 21.5565 15.9107 21.6465 16.0007C21.7365 16.0907 21.7871 16.2128 21.7871 16.3401L21.7871 18.2601C21.7871 18.3874 21.7365 18.5095 21.6465 18.5995C21.5565 18.6895 21.4344 18.7401 21.3071 18.7401L19.3871 18.7401C19.2598 18.7401 19.1377 18.6895 19.0477 18.5995C18.9576 18.5095 18.9071 18.3874 18.9071 18.2601L18.9071 16.3401C18.9071 16.2128 18.9576 16.0907 19.0477 16.0007C19.1377 15.9107 19.2598 15.8601 19.3871 15.8601L21.3071 15.8601Z" fill="#24262B"/>
<path d="M19.8671 2.9385L19.8671 14.9001L19.3871 14.9001C19.0052 14.9001 18.6389 15.0518 18.3688 15.3219C18.0988 15.5919 17.9471 15.9582 17.9471 16.3401L17.9471 18.2601C17.9471 18.642 18.0988 19.0083 18.3688 19.2783C18.6389 19.5484 19.0052 19.7001 19.3871 19.7001L19.8671 19.7001L19.8671 21.9369C19.8671 22.0642 19.9176 22.1863 20.0077 22.2763C20.0977 22.3663 20.2198 22.4169 20.3471 22.4169C20.4744 22.4169 20.5965 22.3663 20.6865 22.2763C20.7765 22.1863 20.8271 22.0642 20.8271 21.9369L20.8271 19.7001L21.3071 19.7001C21.689 19.7001 22.0553 19.5484 22.3253 19.2783C22.5954 19.0083 22.7471 18.642 22.7471 18.2601L22.7471 16.3401C22.7471 15.9582 22.5954 15.5919 22.3253 15.3219C22.0553 15.0518 21.689 14.9001 21.3071 14.9001L20.8271 14.9001L20.8271 2.9385C20.8271 2.81119 20.7765 2.6891 20.6865 2.59908C20.5965 2.50907 20.4744 2.4585 20.3471 2.4585C20.2198 2.4585 20.0977 2.50907 20.0077 2.59908C19.9176 2.6891 19.8671 2.81119 19.8671 2.9385ZM21.3071 15.8601C21.4344 15.8601 21.5565 15.9107 21.6465 16.0007C21.7365 16.0907 21.7871 16.2128 21.7871 16.3401L21.7871 18.2601C21.7871 18.3874 21.7365 18.5095 21.6465 18.5995C21.5565 18.6895 21.4344 18.7401 21.3071 18.7401L19.3871 18.7401C19.2598 18.7401 19.1377 18.6895 19.0477 18.5995C18.9576 18.5095 18.9071 18.3874 18.9071 18.2601L18.9071 16.3401C18.9071 16.2128 18.9576 16.0907 19.0477 16.0007C19.1377 15.9107 19.2598 15.8601 19.3871 15.8601L21.3071 15.8601Z" stroke="#24262B"/>
<path d="M5.46672 22.004L5.46672 17.78L5.94672 17.78C6.32863 17.78 6.6949 17.6283 6.96495 17.3582C7.235 17.0882 7.38672 16.7219 7.38672 16.34L7.38672 14.42C7.38672 14.0381 7.235 13.6718 6.96495 13.4018C6.6949 13.1317 6.32863 12.98 5.94672 12.98L5.46672 12.98L5.46672 2.94802C5.46672 2.82071 5.41615 2.69862 5.32613 2.60861C5.23611 2.51859 5.11402 2.46802 4.98672 2.46802C4.85942 2.46802 4.73732 2.51859 4.64731 2.60861C4.55729 2.69862 4.50672 2.82071 4.50672 2.94802L4.50672 12.98L4.02672 12.98C3.64481 12.98 3.27854 13.1317 3.00849 13.4018C2.73843 13.6718 2.58672 14.0381 2.58672 14.42L2.58672 16.34C2.58672 16.7219 2.73843 17.0882 3.00849 17.3582C3.27854 17.6283 3.64481 17.78 4.02672 17.78L4.50672 17.78L4.50672 22.004C4.50672 22.1313 4.55729 22.2534 4.64731 22.3434C4.73732 22.4334 4.85941 22.484 4.98672 22.484C5.11402 22.484 5.23611 22.4334 5.32613 22.3434C5.41615 22.2534 5.46672 22.1313 5.46672 22.004ZM4.02672 16.82C3.89941 16.82 3.77732 16.7694 3.68731 16.6794C3.59729 16.5894 3.54672 16.4673 3.54672 16.34L3.54672 14.42C3.54672 14.2927 3.59729 14.1706 3.68731 14.0806C3.77732 13.9906 3.89941 13.94 4.02672 13.94L5.94672 13.94C6.07402 13.94 6.19611 13.9906 6.28613 14.0806C6.37615 14.1706 6.42672 14.2927 6.42672 14.42L6.42672 16.34C6.42672 16.4673 6.37615 16.5894 6.28613 16.6794C6.19611 16.7694 6.07402 16.82 5.94672 16.82L4.02672 16.82Z" fill="#24262B"/>
<path d="M5.46672 22.004L5.46672 17.78L5.94672 17.78C6.32863 17.78 6.6949 17.6283 6.96495 17.3582C7.235 17.0882 7.38672 16.7219 7.38672 16.34L7.38672 14.42C7.38672 14.0381 7.235 13.6718 6.96495 13.4018C6.6949 13.1317 6.32863 12.98 5.94672 12.98L5.46672 12.98L5.46672 2.94802C5.46672 2.82071 5.41615 2.69862 5.32613 2.60861C5.23611 2.51859 5.11402 2.46802 4.98672 2.46802C4.85942 2.46802 4.73732 2.51859 4.64731 2.60861C4.55729 2.69862 4.50672 2.82071 4.50672 2.94802L4.50672 12.98L4.02672 12.98C3.64481 12.98 3.27854 13.1317 3.00849 13.4018C2.73843 13.6718 2.58672 14.0381 2.58672 14.42L2.58672 16.34C2.58672 16.7219 2.73843 17.0882 3.00849 17.3582C3.27854 17.6283 3.64481 17.78 4.02672 17.78L4.50672 17.78L4.50672 22.004C4.50672 22.1313 4.55729 22.2534 4.64731 22.3434C4.73732 22.4334 4.85941 22.484 4.98672 22.484C5.11402 22.484 5.23611 22.4334 5.32613 22.3434C5.41615 22.2534 5.46672 22.1313 5.46672 22.004ZM4.02672 16.82C3.89941 16.82 3.77732 16.7694 3.68731 16.6794C3.59729 16.5894 3.54672 16.4673 3.54672 16.34L3.54672 14.42C3.54672 14.2927 3.59729 14.1706 3.68731 14.0806C3.77732 13.9906 3.89941 13.94 4.02672 13.94L5.94672 13.94C6.07402 13.94 6.19611 13.9906 6.28613 14.0806C6.37615 14.1706 6.42672 14.2927 6.42672 14.42L6.42672 16.34C6.42672 16.4673 6.37615 16.5894 6.28613 16.6794C6.19611 16.7694 6.07402 16.82 5.94672 16.82L4.02672 16.82Z" stroke="#24262B"/>
<path d="M10.2674 8.66011L10.2674 10.5801C10.2674 10.962 10.4191 11.3283 10.6891 11.5983C10.9592 11.8684 11.3255 12.0201 11.7074 12.0201L12.1874 12.0201L12.1874 22.0521C12.1874 22.1794 12.238 22.3015 12.328 22.3915C12.418 22.4815 12.5401 22.5321 12.6674 22.5321C12.7947 22.5321 12.9168 22.4815 13.0068 22.3915C13.0968 22.3015 13.1474 22.1794 13.1474 22.0521L13.1474 12.0201L13.6274 12.0201C14.0093 12.0201 14.3756 11.8684 14.6456 11.5983C14.9157 11.3283 15.0674 10.962 15.0674 10.5801L15.0674 8.66011C15.0674 8.2782 14.9157 7.91193 14.6456 7.64188C14.3756 7.37183 14.0093 7.22011 13.6274 7.22011L13.1474 7.22011L13.1474 2.99611C13.1474 2.86881 13.0968 2.74672 13.0068 2.6567C12.9168 2.56668 12.7947 2.51611 12.6674 2.51611C12.5401 2.51611 12.418 2.56668 12.328 2.6567C12.238 2.74672 12.1874 2.86881 12.1874 2.99611L12.1874 7.22011L11.7074 7.22011C11.3255 7.22011 10.9592 7.37183 10.6891 7.64188C10.4191 7.91193 10.2674 8.2782 10.2674 8.66011ZM13.6274 8.18011C13.7547 8.18011 13.8768 8.23068 13.9668 8.3207C14.0568 8.41072 14.1074 8.53281 14.1074 8.66011L14.1074 10.5801C14.1074 10.7074 14.0568 10.8295 13.9668 10.9195C13.8768 11.0095 13.7547 11.0601 13.6274 11.0601L11.7074 11.0601C11.5801 11.0601 11.458 11.0095 11.368 10.9195C11.278 10.8295 11.2274 10.7074 11.2274 10.5801L11.2274 8.66011C11.2274 8.53281 11.278 8.41072 11.368 8.3207C11.458 8.23068 11.5801 8.18011 11.7074 8.18011L13.6274 8.18011Z" fill="#24262B"/>
<path d="M10.2674 8.66011L10.2674 10.5801C10.2674 10.962 10.4191 11.3283 10.6891 11.5983C10.9592 11.8684 11.3255 12.0201 11.7074 12.0201L12.1874 12.0201L12.1874 22.0521C12.1874 22.1794 12.238 22.3015 12.328 22.3915C12.418 22.4815 12.5401 22.5321 12.6674 22.5321C12.7947 22.5321 12.9168 22.4815 13.0068 22.3915C13.0968 22.3015 13.1474 22.1794 13.1474 22.0521L13.1474 12.0201L13.6274 12.0201C14.0093 12.0201 14.3756 11.8684 14.6456 11.5983C14.9157 11.3283 15.0674 10.962 15.0674 10.5801L15.0674 8.66011C15.0674 8.2782 14.9157 7.91193 14.6456 7.64188C14.3756 7.37183 14.0093 7.22011 13.6274 7.22011L13.1474 7.22011L13.1474 2.99611C13.1474 2.86881 13.0968 2.74672 13.0068 2.6567C12.9168 2.56668 12.7947 2.51611 12.6674 2.51611C12.5401 2.51611 12.418 2.56668 12.328 2.6567C12.238 2.74672 12.1874 2.86881 12.1874 2.99611L12.1874 7.22011L11.7074 7.22011C11.3255 7.22011 10.9592 7.37183 10.6891 7.64188C10.4191 7.91193 10.2674 8.2782 10.2674 8.66011ZM13.6274 8.18011C13.7547 8.18011 13.8768 8.23068 13.9668 8.3207C14.0568 8.41072 14.1074 8.53281 14.1074 8.66011L14.1074 10.5801C14.1074 10.7074 14.0568 10.8295 13.9668 10.9195C13.8768 11.0095 13.7547 11.0601 13.6274 11.0601L11.7074 11.0601C11.5801 11.0601 11.458 11.0095 11.368 10.9195C11.278 10.8295 11.2274 10.7074 11.2274 10.5801L11.2274 8.66011C11.2274 8.53281 11.278 8.41072 11.368 8.3207C11.458 8.23068 11.5801 8.18011 11.7074 8.18011L13.6274 8.18011Z" stroke="#24262B"/>
</svg>
