<svg width="66" height="66" viewBox="0 0 66 66" fill="none" xmlns="http://www.w3.org/2000/svg">
<g clip-path="url(#clip0_30_3517)">
<path d="M59.4522 26.3987C55.6252 23.2636 50.5581 21.3946 45.1154 21.095V8.05077C45.1147 7.48031 44.8878 6.93339 44.4844 6.53002C44.081 6.12665 43.5341 5.89977 42.9636 5.89917H2.89965C2.3292 5.89981 1.78231 6.1267 1.37894 6.53006C0.975576 6.93343 0.748685 7.48033 0.748047 8.05077L0.748047 37.3735C0.748685 37.944 0.975576 38.4909 1.37894 38.8942C1.78231 39.2976 2.3292 39.5245 2.89965 39.5251H11.3538C10.7998 43.0658 9.15958 45.3353 6.35658 46.4495C6.19203 46.515 6.05544 46.6357 5.97028 46.791C5.88513 46.9463 5.85674 47.1264 5.88999 47.3003C5.92325 47.4743 6.01607 47.6312 6.1525 47.7441C6.28893 47.857 6.46044 47.9189 6.63753 47.919C6.65594 47.919 6.6746 47.919 6.69313 47.917C12.2013 47.5244 17.4549 45.4448 21.7394 41.961C22.6117 45.8032 25.0514 49.3116 28.7209 51.95C32.7971 54.8815 38.0686 56.496 43.5644 56.496C45.9289 56.5002 48.2839 56.1974 50.5704 55.5952C54.3526 58.4993 58.9043 60.2287 63.6607 60.5689C63.6793 60.5701 63.698 60.5708 63.7164 60.5708C63.8935 60.5706 64.065 60.5088 64.2014 60.3959C64.3379 60.283 64.4307 60.126 64.464 59.9521C64.4972 59.7781 64.4688 59.5981 64.3837 59.4428C64.2985 59.2875 64.1619 59.1667 63.9974 59.1013C61.0754 57.9397 59.5577 55.3595 59.3643 51.22C63.4845 47.8852 65.748 43.48 65.748 38.7734C65.748 34.1193 63.5121 29.7246 59.4522 26.3987ZM45.1131 37.4167C45.3114 37.6426 45.4579 37.9092 45.5423 38.1978C45.6266 38.4864 45.6467 38.7899 45.6012 39.0871C45.5557 39.3842 45.4457 39.6679 45.2789 39.918C45.1122 40.1681 44.8926 40.3787 44.6358 40.535C44.3789 40.6912 44.091 40.7893 43.7921 40.8224C43.4933 40.8555 43.1909 40.8227 42.9061 40.7265C42.6213 40.6302 42.361 40.4727 42.1435 40.2652C41.9261 40.0576 41.7567 39.8049 41.6473 39.5249H42.9636C43.5264 39.5241 44.0664 39.303 44.4682 38.909C44.8699 38.5149 45.1014 37.9793 45.1131 37.4167ZM12.9778 38.8416C12.9888 38.7355 12.9774 38.6283 12.9443 38.5269C12.9112 38.4255 12.8573 38.3322 12.7858 38.253C12.7144 38.1738 12.6272 38.1105 12.5297 38.0672C12.4323 38.0238 12.3268 38.0014 12.2202 38.0014H2.89965C2.73315 38.0012 2.57353 37.935 2.45578 37.8173C2.33803 37.6996 2.27175 37.54 2.27148 37.3735V8.05077C2.27165 7.88422 2.33789 7.72454 2.45565 7.60678C2.57342 7.48901 2.7331 7.42278 2.89965 7.42261H42.9636C43.1302 7.42278 43.2899 7.48901 43.4077 7.60677C43.5255 7.72453 43.5917 7.88421 43.5919 8.05077V37.3735C43.5917 37.5401 43.5255 37.6998 43.4077 37.8175C43.2899 37.9353 43.1302 38.0015 42.9636 38.0017H24.0321C23.9268 38.0017 23.8226 38.0235 23.7262 38.0658C23.6297 38.1081 23.5431 38.17 23.4718 38.2475C19.8799 42.1608 15.1498 44.8474 9.94897 45.9281C11.6457 44.2709 12.6608 41.9007 12.9778 38.8416ZM36.0579 39.5249C35.9072 39.9106 35.6436 40.242 35.3016 40.4756C34.9596 40.7092 34.5551 40.8341 34.1409 40.8341C33.7267 40.8341 33.3222 40.7092 32.9802 40.4756C32.6382 40.242 32.3746 39.9106 32.2239 39.5249H36.0579ZM58.121 50.2618C58.0268 50.3351 57.9512 50.4296 57.9002 50.5376C57.8492 50.6455 57.8244 50.7639 57.8276 50.8832C57.9181 54.2475 58.813 56.8207 60.4966 58.5738C57.106 57.8286 53.93 56.3199 51.2103 54.1624C51.1159 54.0878 51.0052 54.0365 50.8872 54.0129C50.7692 53.9892 50.6473 53.9939 50.5314 54.0265C48.2633 54.659 45.9191 54.9772 43.5644 54.9723C33.0844 54.9723 24.3587 48.9114 23.066 40.8099C23.511 40.3975 23.9434 39.9692 24.3635 39.5249H30.6367C30.8083 40.3269 31.2497 41.0458 31.8874 41.5616C32.5251 42.0773 33.3205 42.3587 34.1407 42.3587C34.9608 42.3587 35.7562 42.0773 36.3939 41.5616C37.0316 41.0458 37.4731 40.3269 37.6446 39.5249H40.0601C40.1878 40.12 40.4649 40.6728 40.8653 41.1312C41.2657 41.5896 41.7763 41.9385 42.3489 42.145C42.9215 42.3514 43.5372 42.4087 44.138 42.3114C44.7389 42.214 45.305 41.9653 45.7831 41.5886C46.2612 41.2119 46.6355 40.7196 46.8707 40.1583C47.1059 39.5969 47.1943 38.9848 47.1275 38.3798C47.0607 37.7748 46.841 37.1968 46.489 36.7003C46.137 36.2037 45.6644 35.8049 45.1156 35.5416V22.6205C55.8929 23.2426 64.2246 30.2222 64.2246 38.7734C64.2246 43.1154 62.057 47.1954 58.121 50.2618ZM52.9875 35.1889C52.2785 35.1889 51.5855 35.3991 50.996 35.793C50.4066 36.1869 49.9471 36.7467 49.6758 37.4017C49.4045 38.0567 49.3335 38.7774 49.4718 39.4727C49.6101 40.1681 49.9515 40.8068 50.4528 41.3081C50.9541 41.8094 51.5928 42.1508 52.2882 42.2891C52.9835 42.4274 53.7042 42.3564 54.3592 42.0851C55.0142 41.8138 55.574 41.3544 55.9679 40.7649C56.3618 40.1754 56.572 39.4824 56.572 38.7734C56.5709 37.8231 56.1929 36.912 55.5209 36.24C54.8489 35.568 53.9378 35.19 52.9875 35.1889ZM52.9875 40.8344C52.5798 40.8344 52.1813 40.7135 51.8424 40.487C51.5034 40.2605 51.2393 39.9386 51.0833 39.562C50.9273 39.1854 50.8865 38.771 50.966 38.3712C51.0455 37.9713 51.2419 37.6041 51.5301 37.3159C51.8184 37.0276 52.1856 36.8313 52.5855 36.7518C52.9853 36.6723 53.3997 36.7131 53.7763 36.8691C54.1529 37.0252 54.4748 37.2894 54.7013 37.6283C54.9277 37.9673 55.0486 38.3658 55.0486 38.7734C55.0479 39.3199 54.8306 39.8437 54.4442 40.2301C54.0578 40.6165 53.5339 40.8338 52.9875 40.8344ZM8.81097 18.8544H25.3569C25.9384 18.8499 26.4946 18.6158 26.9043 18.2031C27.3139 17.7903 27.5438 17.2323 27.5438 16.6508C27.5438 16.0692 27.3139 15.5112 26.9043 15.0985C26.4946 14.6857 25.9384 14.4516 25.3569 14.4472H8.81097C8.52018 14.445 8.23183 14.5003 7.96254 14.6101C7.69325 14.7198 7.44835 14.8818 7.24195 15.0866C7.03555 15.2915 6.87173 15.5352 6.75994 15.8036C6.64814 16.0721 6.59059 16.36 6.59059 16.6508C6.59059 16.9416 6.64814 17.2295 6.75994 17.4979C6.87173 17.7664 7.03555 18.01 7.24195 18.2149C7.44835 18.4197 7.69325 18.5817 7.96254 18.6914C8.23183 18.8012 8.52018 18.8566 8.81097 18.8544ZM8.81097 15.9706H25.3569C25.5357 15.9731 25.7063 16.0458 25.8319 16.1731C25.9574 16.3004 26.0278 16.472 26.0278 16.6508C26.0278 16.8296 25.9574 17.0012 25.8319 17.1285C25.7063 17.2557 25.5357 17.3285 25.3569 17.3309H8.81097C8.72087 17.3321 8.63142 17.3155 8.54782 17.2818C8.46422 17.2482 8.38814 17.1983 8.32399 17.135C8.25984 17.0717 8.2089 16.9964 8.17413 16.9132C8.13936 16.8301 8.12146 16.7409 8.12146 16.6508C8.12146 16.5607 8.13936 16.4714 8.17413 16.3883C8.2089 16.3052 8.25984 16.2298 8.32399 16.1665C8.38814 16.1032 8.46422 16.0533 8.54782 16.0197C8.63142 15.9861 8.72087 15.9694 8.81097 15.9706ZM39.2561 28.7733C39.2555 28.1891 39.0231 27.629 38.61 27.2159C38.1969 26.8028 37.6368 26.5704 37.0526 26.5698H8.81097C8.52018 26.5676 8.23183 26.623 7.96254 26.7327C7.69325 26.8425 7.44835 27.0044 7.24195 27.2093C7.03555 27.4141 6.87173 27.6578 6.75994 27.9262C6.64814 28.1947 6.59059 28.4826 6.59059 28.7734C6.59059 29.0642 6.64814 29.3521 6.75994 29.6206C6.87173 29.889 7.03555 30.1327 7.24195 30.3375C7.44835 30.5424 7.69325 30.7043 7.96254 30.8141C8.23183 30.9238 8.52018 30.9792 8.81097 30.977H37.0526C37.6368 30.9763 38.1969 30.744 38.61 30.3308C39.0232 29.9177 39.2555 29.3576 39.2561 28.7733ZM8.13075 28.7733C8.13099 28.593 8.20273 28.4201 8.33025 28.2927C8.45777 28.1652 8.63065 28.0934 8.81097 28.0932H37.0526C37.2314 28.0957 37.402 28.1684 37.5275 28.2957C37.6531 28.423 37.7235 28.5946 37.7235 28.7734C37.7235 28.9522 37.6531 29.1238 37.5275 29.2511C37.402 29.3784 37.2314 29.4511 37.0526 29.4535H8.81097C8.63062 29.4533 8.45773 29.3816 8.3302 29.2541C8.20268 29.1266 8.13095 28.9537 8.13075 28.7733ZM8.81097 24.9156H37.0526C37.6341 24.9112 38.1903 24.6771 38.6 24.2643C39.0096 23.8515 39.2395 23.2936 39.2395 22.712C39.2395 22.1305 39.0096 21.5725 38.6 21.1597C38.1903 20.747 37.6341 20.5128 37.0526 20.5084H8.81097C8.52018 20.5062 8.23183 20.5616 7.96254 20.6713C7.69325 20.7811 7.44835 20.9431 7.24195 21.1479C7.03555 21.3527 6.87173 21.5964 6.75994 21.8649C6.64814 22.1333 6.59059 22.4212 6.59059 22.712C6.59059 23.0028 6.64814 23.2907 6.75994 23.5592C6.87173 23.8276 7.03555 24.0713 7.24195 24.2761C7.44835 24.481 7.69325 24.6429 7.96254 24.7527C8.23183 24.8624 8.52018 24.9178 8.81097 24.9156ZM8.81097 22.0319H37.0526C37.2314 22.0343 37.402 22.107 37.5275 22.2343C37.6531 22.3616 37.7235 22.5332 37.7235 22.712C37.7235 22.8908 37.6531 23.0624 37.5275 23.1897C37.402 23.317 37.2314 23.3897 37.0526 23.3922H8.81097C8.72087 23.3934 8.63142 23.3767 8.54782 23.3431C8.46422 23.3095 8.38814 23.2596 8.32399 23.1963C8.25984 23.133 8.2089 23.0576 8.17413 22.9745C8.13936 22.8913 8.12146 22.8021 8.12146 22.712C8.12146 22.6219 8.13936 22.5327 8.17413 22.4496C8.2089 22.3664 8.25984 22.291 8.32399 22.2278C8.38814 22.1645 8.46422 22.1146 8.54782 22.0809C8.63142 22.0473 8.72087 22.0306 8.81097 22.0319Z" fill="#0D775E"/>
</g>
<defs>
<clipPath id="clip0_30_3517">
<rect width="65" height="65" fill="white" transform="translate(0.748047 0.734863)"/>
</clipPath>
</defs>
</svg>
