<svg width="66" height="66" viewBox="0 0 66 66" fill="none" xmlns="http://www.w3.org/2000/svg">
<path fill-rule="evenodd" clip-rule="evenodd" d="M33.248 5.40011C17.9004 5.40011 5.4134 17.887 5.4134 33.2348C5.4134 48.5826 17.9002 61.0694 33.248 61.0694C48.5959 61.0694 61.0826 48.5827 61.0826 33.2348C61.0829 17.8869 48.5959 5.40022 33.248 5.40011ZM33.248 62.4054C25.4558 62.4054 18.131 59.3716 12.6211 53.8617C7.11134 48.3518 4.07739 41.0271 4.07739 33.2348C4.07739 25.4425 7.11127 18.1178 12.6211 12.6079C18.1311 7.09805 25.4558 4.06421 33.248 4.06421C41.0404 4.0641 48.3651 7.09805 53.8749 12.6079C59.3849 18.1178 62.4186 25.4426 62.4186 33.2348C62.4189 41.027 59.3848 48.3519 53.8749 53.8617C48.3652 59.3715 41.0402 62.4055 33.248 62.4054Z" fill="#0D775E"/>
<path fill-rule="evenodd" clip-rule="evenodd" d="M33.2479 11.6071C27.4715 11.6071 22.0403 13.857 17.9558 17.9427C13.8701 22.0271 11.6202 27.4583 11.6202 33.2349C11.6203 39.0114 13.87 44.4425 17.9558 48.527C21.8827 52.4549 27.0539 54.6852 32.5799 54.8522L32.5802 51.6884C27.8981 51.5226 23.5201 49.6218 20.1906 46.2922C16.7034 42.8037 14.7828 38.1672 14.7828 33.2349C14.7829 28.3025 16.7033 23.6659 20.1906 20.1775C23.679 16.6902 28.3156 14.7697 33.2479 14.7697C38.1805 14.7697 42.818 16.6902 46.3053 20.1775C49.7927 23.6647 51.7131 28.3025 51.7131 33.2349C51.7133 33.6036 51.4139 33.9029 51.0451 33.9029H50.485L53.294 38.0791L56.1041 33.9029H55.5438C55.1751 33.9029 54.8757 33.6037 54.8757 33.2349C54.8759 27.4582 52.6259 22.0272 48.5412 17.9427C44.4558 13.8569 39.0245 11.6071 33.2479 11.6071ZM33.2479 56.1988C27.1143 56.1988 21.348 53.8097 17.0106 49.4724C12.6734 45.1349 10.2842 39.3688 10.2842 33.235C10.2843 27.1011 12.6732 21.335 17.0106 16.9977C21.3481 12.6602 27.1141 10.2712 33.2479 10.2712C39.3818 10.2712 45.1479 12.6603 49.4853 16.9977C53.6651 21.1773 56.0355 26.6837 56.2025 32.567H57.3576C57.6047 32.567 57.8318 32.7027 57.9478 32.9207C58.064 33.1387 58.0499 33.4032 57.9119 33.6084L53.8482 39.6482C53.7243 39.8327 53.5165 39.9429 53.2938 39.9429C53.0725 39.9428 52.8636 39.8327 52.7395 39.6483L48.6769 33.6084C48.539 33.4031 48.525 33.1387 48.641 32.9207C48.757 32.7027 48.9843 32.567 49.2301 32.567H50.3645C50.1998 28.2423 48.4369 24.1996 45.3601 21.1228C42.1258 17.8871 37.8231 16.1058 33.2479 16.1058C28.6729 16.1058 24.3714 17.8872 21.1357 21.1228C17.9003 24.3584 16.1188 28.6599 16.1188 33.235C16.1189 37.81 17.9001 42.1128 21.1357 45.3472C24.3716 48.5828 28.6728 50.3642 33.2479 50.3642C33.6169 50.364 33.9159 50.6634 33.9159 51.0322L33.9162 55.5307C33.9162 55.8995 33.6167 56.1988 33.2479 56.1988Z" fill="#0D775E"/>
<path fill-rule="evenodd" clip-rule="evenodd" d="M32.0755 46.9555H34.4206V45.521C34.4206 45.2182 34.6245 44.9527 34.9179 44.875C36.0243 44.5826 37.0391 43.9971 37.8532 43.1829C39.0838 41.9524 39.7621 40.3173 39.7621 38.5777C39.7622 36.8391 39.0837 35.2029 37.8532 33.9724C36.6229 32.7419 34.9875 32.0635 33.2479 32.0635C32.1347 32.0635 31.0885 31.6309 30.3011 30.8435C29.5136 30.0559 29.0798 29.0088 29.0798 27.8954C29.0799 26.7832 29.5136 25.736 30.3011 24.9486C31.0886 24.161 32.1346 23.7274 33.2479 23.7274C34.3613 23.7274 35.4074 24.1611 36.1948 24.9486C36.8222 25.5759 37.2258 26.3681 37.3626 27.2274L39.7286 27.2273C39.5777 25.7406 38.9248 24.3617 37.8532 23.2902C37.0391 22.4759 36.0243 21.8915 34.9179 21.5981C34.6246 21.5204 34.4204 21.256 34.4204 20.9521L34.4206 19.514H32.0755V20.952C32.0755 21.2559 31.8714 21.5204 31.5779 21.5981C30.4715 21.8914 29.4568 22.476 28.6426 23.2902C27.4123 24.5205 26.7337 26.157 26.7337 27.8954C26.7338 29.6349 27.4122 31.2702 28.6426 32.5007C29.8731 33.7323 31.5083 34.4096 33.2479 34.4096C34.3613 34.4096 35.4074 34.8433 36.1948 35.6308C36.9824 36.4183 37.4159 37.4643 37.4159 38.5777C37.4161 39.691 36.9823 40.7371 36.1948 41.5245C35.4074 42.312 34.3613 42.7457 33.2479 42.7457C32.1347 42.7456 31.0885 42.312 30.3011 41.5245C29.6738 40.897 29.2701 40.105 29.1332 39.2457L26.7675 39.2457C26.9183 40.7324 27.5711 42.1114 28.6426 43.1829C29.457 43.9971 30.4715 44.5828 31.5779 44.875C31.8715 44.9526 32.0754 45.2183 32.0754 45.521L32.0755 46.9555ZM35.0886 48.2915H31.4075C31.0388 48.2915 30.7394 47.9924 30.7394 47.6235L30.7395 46.0173C29.5995 45.6323 28.5556 44.9852 27.6974 44.1281C26.2153 42.6448 25.3977 40.6733 25.3977 38.5777C25.3978 38.2088 25.6969 37.9097 26.0657 37.9097L29.7479 37.9096C30.1166 37.9096 30.4158 38.2089 30.4158 38.5777C30.4159 39.3337 30.7104 40.0447 31.2462 40.5805C31.7809 41.1151 32.4917 41.4097 33.2479 41.4097C34.0041 41.4096 34.715 41.1151 35.2507 40.5805C35.7855 40.0447 36.0799 39.3338 36.0799 38.5777C36.0802 37.8214 35.7854 37.1106 35.2507 36.576C34.7152 36.0402 34.004 35.7456 33.2479 35.7456C31.1523 35.7456 29.1807 34.9292 27.6974 33.4459C26.2153 31.9626 25.3977 29.9923 25.3977 27.8954C25.3978 25.7998 26.2153 23.8294 27.6974 22.3461C28.5557 21.4879 29.5983 20.8408 30.7394 20.4558L30.7395 18.846C30.7395 18.4772 31.0386 18.1781 31.4075 18.1781L35.0886 18.178C35.4573 18.178 35.7564 18.4773 35.7564 18.8461L35.7566 20.4557C36.8966 20.8408 37.9401 21.4879 38.7984 22.3461C40.2818 23.8294 41.0981 25.7998 41.0981 27.8954C41.0983 28.2653 40.7989 28.5634 40.4301 28.5634L36.7481 28.5634C36.3791 28.5634 36.0799 28.2654 36.0799 27.8954C36.0802 27.1393 35.7854 26.4284 35.2507 25.8937C34.7152 25.3579 34.004 25.0634 33.2479 25.0634C32.492 25.0634 31.7808 25.3579 31.2462 25.8937C30.7106 26.4284 30.4158 27.1393 30.4158 27.8954C30.4159 28.6516 30.7104 29.3636 31.2462 29.8983C31.7809 30.4329 32.4917 30.7275 33.2479 30.7275C35.3437 30.7275 37.3151 31.5451 38.7984 33.0272C40.2818 34.5104 41.0981 36.4821 41.0981 38.5777C41.0983 40.6732 40.2817 42.6448 38.7984 44.1281C37.9404 44.9852 36.8964 45.6323 35.7564 46.0174L35.7566 47.6235C35.7566 47.9923 35.4572 48.2916 35.0886 48.2915Z" fill="#0D775E"/>
</svg>
