<svg width="46" height="46" viewBox="0 0 46 46" fill="none" xmlns="http://www.w3.org/2000/svg">
<path d="M13.1398 37.2C13.0496 37.2001 12.9605 37.1801 12.879 37.1415C12.7975 37.1029 12.7256 37.0467 12.6685 36.9769C9.24424 32.7925 5.95255 25.075 6.28945 18.4217C6.29531 18.3047 6.33481 18.192 6.4032 18.0969C6.47159 18.0019 6.56597 17.9286 6.67499 17.8859L22.5265 11.6832C22.6689 11.6276 22.8269 11.6276 22.9692 11.6832L38.8208 17.8859C38.9298 17.9286 39.0242 18.0019 39.0926 18.0969C39.161 18.192 39.2005 18.3047 39.2063 18.4217C39.5432 25.0798 36.2479 32.7961 32.8212 36.9775C32.7705 37.0392 32.7082 37.0904 32.6378 37.128C32.5673 37.1656 32.4902 37.189 32.4107 37.1969C32.3312 37.2047 32.251 37.1968 32.1745 37.1736C32.0981 37.1504 32.027 37.1124 31.9653 37.0617C31.9036 37.011 31.8524 36.9487 31.8148 36.8783C31.7771 36.8078 31.7537 36.7307 31.7459 36.6512C31.7381 36.5717 31.746 36.4915 31.7692 36.415C31.7924 36.3386 31.8304 36.2675 31.8811 36.2058C35.0159 32.3838 38.1798 25.0774 38.0102 18.8747L22.7479 12.9025L7.48863 18.8735C7.31897 25.0707 10.4793 32.3808 13.6111 36.2046C13.6841 36.2936 13.7303 36.4016 13.7444 36.5159C13.7584 36.6301 13.7397 36.7461 13.6905 36.8502C13.6413 36.9543 13.5635 37.0422 13.4662 37.1038C13.3689 37.1655 13.2561 37.1982 13.141 37.1982L13.1398 37.2Z" fill="#ABABAB"/>
<path d="M38.1653 24.3465C38.09 24.3464 38.0153 24.3324 37.9451 24.3051L22.7479 18.4168L7.55067 24.3051C7.4762 24.334 7.39678 24.3479 7.31693 24.3461C7.23708 24.3442 7.15838 24.3267 7.08531 24.2945C7.01224 24.2622 6.94624 24.2159 6.89107 24.1582C6.8359 24.1004 6.79264 24.0324 6.76378 23.9579C6.73491 23.8834 6.72099 23.804 6.72282 23.7241C6.72464 23.6443 6.74218 23.5656 6.77442 23.4925C6.80666 23.4195 6.85298 23.3535 6.91073 23.2983C6.96849 23.2431 7.03654 23.1999 7.11101 23.171L22.5284 17.1957C22.6696 17.141 22.8262 17.141 22.9674 17.1957L38.3848 23.171C38.5173 23.2221 38.6277 23.318 38.697 23.442C38.7662 23.566 38.7898 23.7104 38.7637 23.85C38.7376 23.9896 38.6635 24.1157 38.5542 24.2064C38.4449 24.2971 38.3073 24.3466 38.1653 24.3465Z" fill="#ABABAB"/>
<path d="M36.5291 38.2344C35.2555 38.2653 33.9926 37.9955 32.8427 37.4469C31.8431 36.9659 30.7433 36.7297 29.6344 36.758C28.5263 36.7297 27.4276 36.9659 26.429 37.4469C25.2796 37.9955 24.0171 38.2653 22.7439 38.2344C21.4705 38.2653 20.2078 37.9955 19.0581 37.4469C18.0592 36.9659 16.96 36.7297 15.8516 36.758C14.7436 36.7296 13.6448 36.9658 12.6462 37.4469C11.497 37.9954 10.2347 38.2652 8.96172 38.2344C7.68868 38.2657 6.42625 37.9959 5.27719 37.4469C4.27885 36.966 3.18027 36.7298 2.07246 36.758C1.91118 36.758 1.75651 36.6939 1.64247 36.5799C1.52842 36.4658 1.46436 36.3111 1.46436 36.1499C1.46436 35.9886 1.52842 35.8339 1.64247 35.7199C1.75651 35.6058 1.91118 35.5417 2.07246 35.5417C3.34552 35.5118 4.60769 35.7827 5.75638 36.3323C6.75477 36.8131 7.85332 37.0493 8.96111 37.0213C10.0695 37.0484 11.1685 36.8112 12.1671 36.3292C13.316 35.7796 14.5783 35.5087 15.8516 35.5387C17.1252 35.5088 18.388 35.7796 19.5373 36.3292C20.5364 36.81 21.6355 37.0462 22.7439 37.0182C23.8521 37.0462 24.951 36.8101 25.9498 36.3292C27.0987 35.7796 28.3611 35.5087 29.6344 35.5387C30.9081 35.508 32.1711 35.7776 33.3213 36.3256C34.3298 36.7799 35.4233 37.0149 36.5294 37.0149C37.6355 37.0149 38.729 36.7799 39.7375 36.3256C40.8876 35.7783 42.1505 35.5098 43.4238 35.5417C43.5851 35.5417 43.7398 35.6058 43.8538 35.7199C43.9679 35.8339 44.0319 35.9886 44.0319 36.1499C44.0319 36.3111 43.9679 36.4658 43.8538 36.5799C43.7398 36.6939 43.5851 36.758 43.4238 36.758C42.3148 36.7297 41.2151 36.9659 40.2154 37.4469C39.0656 37.9955 37.8027 38.2653 36.5291 38.2344Z" fill="#ABABAB"/>
<path d="M36.5291 43.4033C35.255 43.4333 33.9919 43.1625 32.8421 42.6128C31.8425 42.1318 30.7427 41.8956 29.6337 41.9238C28.5257 41.8956 27.427 42.1318 26.4284 42.6128C25.2793 43.1624 24.0167 43.4332 22.7433 43.4033C21.4696 43.4332 20.2069 43.1624 19.0575 42.6128C18.0586 42.1317 16.9594 41.8955 15.851 41.9238C14.743 41.8955 13.6442 42.1317 12.6456 42.6128C11.4967 43.1623 10.2344 43.4332 8.96111 43.4033C7.68803 43.4335 6.42581 43.1627 5.27719 42.6128C4.27859 42.1329 3.18002 41.8977 2.07246 41.9269C1.91118 41.9269 1.75651 41.8628 1.64247 41.7487C1.52842 41.6347 1.46436 41.48 1.46436 41.3188C1.46436 41.1575 1.52842 41.0028 1.64247 40.8888C1.75651 40.7747 1.91118 40.7106 2.07246 40.7106C3.34528 40.6798 4.60743 40.9496 5.75638 41.4981C6.75477 41.979 7.85332 42.2152 8.96111 42.1871C10.0693 42.2152 11.1682 41.979 12.1671 41.4981C13.3162 40.9495 14.5786 40.6797 15.8516 40.7106C17.125 40.6798 18.3877 40.9496 19.5373 41.4981C20.5364 41.9789 21.6355 42.2151 22.7439 42.1871C23.8521 42.2151 24.951 41.979 25.9498 41.4981C27.099 40.9495 28.3613 40.6797 29.6344 40.7106C30.9081 40.6799 32.1711 40.9495 33.3213 41.4975C34.3298 41.9519 35.4233 42.1868 36.5294 42.1868C37.6355 42.1868 38.729 41.9519 39.7375 41.4975C40.8873 40.9492 42.1503 40.6796 43.4238 40.7106C43.5851 40.7106 43.7398 40.7747 43.8538 40.8888C43.9679 41.0028 44.0319 41.1575 44.0319 41.3188C44.0319 41.48 43.9679 41.6347 43.8538 41.7487C43.7398 41.8628 43.5851 41.9269 43.4238 41.9269C42.3148 41.8986 41.2151 42.1348 40.2154 42.6158C39.0656 43.1644 37.8027 43.4342 36.5291 43.4033Z" fill="#ABABAB"/>
<path d="M22.7482 38.2332C22.587 38.2332 22.4323 38.1692 22.3182 38.0551C22.2042 37.9411 22.1401 37.7864 22.1401 37.6251V12.2494C22.1401 12.0881 22.2042 11.9334 22.3182 11.8194C22.4323 11.7053 22.587 11.6413 22.7482 11.6413C22.9095 11.6413 23.0642 11.7053 23.1782 11.8194C23.2923 11.9334 23.3564 12.0881 23.3564 12.2494V37.6251C23.3564 37.7864 23.2923 37.9411 23.1782 38.0551C23.0642 38.1692 22.9095 38.2332 22.7482 38.2332Z" fill="#ABABAB"/>
<path d="M32.3527 16.6132C32.1914 16.6132 32.0367 16.5491 31.9227 16.435C31.8086 16.321 31.7446 16.1663 31.7446 16.005V9.2137C31.7444 9.0237 31.6689 8.84153 31.5346 8.70712C31.4003 8.57272 31.2182 8.49706 31.0282 8.49674H14.4682C14.2782 8.49706 14.0961 8.57272 13.9618 8.70712C13.8275 8.84153 13.752 9.0237 13.7519 9.2137V16.005C13.7519 16.1663 13.6878 16.321 13.5738 16.435C13.4597 16.5491 13.305 16.6132 13.1438 16.6132C12.9825 16.6132 12.8278 16.5491 12.7138 16.435C12.5997 16.321 12.5356 16.1663 12.5356 16.005V9.2137C12.5361 8.70124 12.7399 8.2099 13.1022 7.84748C13.4645 7.48506 13.9558 7.28117 14.4682 7.28052H31.0282C31.5407 7.28117 32.0319 7.48506 32.3942 7.84748C32.7566 8.2099 32.9603 8.70124 32.9608 9.2137V16.005C32.9608 16.1663 32.8967 16.321 32.7827 16.435C32.6686 16.5491 32.514 16.6132 32.3527 16.6132Z" fill="#ABABAB"/>
<path d="M24.942 8.49674H20.5539C20.3926 8.49674 20.238 8.43267 20.1239 8.31863C20.0099 8.20459 19.9458 8.04991 19.9458 7.88863V2.6735C19.9458 2.51222 20.0099 2.35754 20.1239 2.2435C20.238 2.12946 20.3926 2.06539 20.5539 2.06539H24.942C25.1033 2.06539 25.258 2.12946 25.372 2.2435C25.4861 2.35754 25.5501 2.51222 25.5501 2.6735V7.88863C25.5501 8.04991 25.4861 8.20459 25.372 8.31863C25.258 8.43267 25.1033 8.49674 24.942 8.49674ZM21.162 7.28052H24.3339V3.2816H21.162V7.28052Z" fill="#ABABAB"/>
</svg>
