<svg width="56" height="56" viewBox="0 0 56 56" fill="none" xmlns="http://www.w3.org/2000/svg">
<path d="M16.0048 45.5322C15.8945 45.5323 15.7857 45.5078 15.686 45.4607C15.5864 45.4135 15.4985 45.3447 15.4288 45.2594C11.2436 40.1451 7.22038 30.7126 7.63214 22.5808C7.63931 22.4379 7.68759 22.3001 7.77118 22.1839C7.85477 22.0678 7.97011 21.9782 8.10336 21.926L27.4775 14.3449C27.6514 14.2769 27.8446 14.2769 28.0186 14.3449L47.3927 21.926C47.5259 21.9782 47.6413 22.0678 47.7249 22.1839C47.8084 22.3001 47.8567 22.4379 47.8639 22.5808C48.2757 30.7186 44.248 40.1496 40.0598 45.2601C39.9979 45.3356 39.9217 45.3981 39.8356 45.4441C39.7496 45.4901 39.6552 45.5187 39.5581 45.5283C39.461 45.5378 39.3629 45.5282 39.2695 45.4998C39.1761 45.4715 39.0892 45.425 39.0137 45.3631C38.9383 45.3011 38.8758 45.225 38.8298 45.1389C38.7838 45.0528 38.7552 44.9585 38.7456 44.8613C38.736 44.7642 38.7457 44.6661 38.7741 44.5727C38.8024 44.4793 38.8489 44.3924 38.9108 44.317C42.7422 39.6457 46.6093 30.7156 46.4019 23.1345L27.748 15.8351L9.09782 23.133C8.89045 30.7074 12.7531 39.642 16.5808 44.3155C16.67 44.4243 16.7265 44.5562 16.7437 44.6959C16.7609 44.8356 16.7381 44.9773 16.6779 45.1045C16.6177 45.2317 16.5226 45.3393 16.4037 45.4146C16.2848 45.4899 16.147 45.5299 16.0063 45.5299L16.0048 45.5322Z" fill="#0D775E"/>
<path d="M46.5915 29.8221C46.4994 29.8221 46.4082 29.805 46.3224 29.7716L27.748 22.5748L9.17364 29.7716C9.08262 29.8069 8.98555 29.8239 8.88796 29.8217C8.79036 29.8194 8.69417 29.798 8.60486 29.7586C8.51556 29.7192 8.43488 29.6626 8.36746 29.592C8.30003 29.5214 8.24716 29.4382 8.21188 29.3472C8.17659 29.2562 8.15958 29.1591 8.16182 29.0615C8.16405 28.9639 8.18548 28.8677 8.22489 28.7784C8.2643 28.6891 8.32091 28.6085 8.39149 28.541C8.46208 28.4736 8.54526 28.4207 8.63627 28.3855L27.4797 21.0823C27.6524 21.0155 27.8437 21.0155 28.0163 21.0823L46.8598 28.3855C47.0218 28.4479 47.1567 28.5651 47.2413 28.7167C47.3259 28.8683 47.3548 29.0447 47.3229 29.2153C47.2911 29.386 47.2005 29.5401 47.0669 29.6509C46.9333 29.7618 46.7651 29.8223 46.5915 29.8221Z" fill="#0D775E"/>
<path d="M44.5913 46.7957C43.0346 46.8334 41.4911 46.5037 40.0857 45.8332C38.864 45.2453 37.5198 44.9566 36.1644 44.9911C34.8101 44.9566 33.4672 45.2453 32.2467 45.8332C30.8419 46.5037 29.2988 46.8334 27.7427 46.7957C26.1863 46.8334 24.643 46.5036 23.2379 45.8332C22.0169 45.2452 20.6735 44.9566 19.3188 44.9911C17.9645 44.9565 16.6215 45.2452 15.4011 45.8332C13.9966 46.5036 12.4537 46.8333 10.8978 46.7957C9.34188 46.8339 7.79891 46.5041 6.39451 45.8332C5.17431 45.2454 3.83161 44.9567 2.47762 44.9911C2.2805 44.9911 2.09145 44.9128 1.95207 44.7734C1.81268 44.6341 1.73438 44.445 1.73438 44.2479C1.73438 44.0508 1.81268 43.8617 1.95207 43.7223C2.09145 43.5829 2.2805 43.5046 2.47762 43.5046C4.03358 43.4681 5.57622 43.7991 6.98019 44.4709C8.20044 45.0586 9.54311 45.3472 10.8971 45.313C12.2518 45.3461 13.595 45.0561 14.8155 44.4671C16.2197 43.7953 17.7626 43.4643 19.3188 43.5009C20.8754 43.4643 22.4188 43.7954 23.8236 44.4671C25.0446 45.0548 26.388 45.3434 27.7427 45.3092C29.0971 45.3435 30.4403 45.0548 31.6611 44.4671C33.0653 43.7953 34.6082 43.4643 36.1644 43.5009C37.7211 43.4634 39.2649 43.7929 40.6707 44.4627C41.9032 45.018 43.2397 45.3052 44.5916 45.3052C45.9435 45.3052 47.28 45.018 48.5126 44.4627C49.9183 43.7938 51.4619 43.4656 53.0182 43.5046C53.2153 43.5046 53.4043 43.5829 53.5437 43.7223C53.6831 43.8617 53.7614 44.0508 53.7614 44.2479C53.7614 44.445 53.6831 44.6341 53.5437 44.7734C53.4043 44.9128 53.2153 44.9911 53.0182 44.9911C51.6627 44.9566 50.3186 45.2453 49.0968 45.8332C47.6915 46.5037 46.1479 46.8335 44.5913 46.7957Z" fill="#0D775E"/>
<path d="M44.5913 53.1134C43.0341 53.15 41.4902 52.819 40.085 52.1471C38.8632 51.5592 37.5191 51.2705 36.1636 51.305C34.8094 51.2705 33.4664 51.5592 32.246 52.1471C30.8415 52.8189 29.2984 53.1499 27.7419 53.1134C26.1853 53.1499 24.6419 52.8188 23.2371 52.1471C22.0162 51.5592 20.6727 51.2705 19.318 51.305C17.9638 51.2704 16.6208 51.5591 15.4004 52.1471C13.9961 52.8188 12.4533 53.1498 10.8971 53.1134C9.34108 53.1502 7.79837 52.8192 6.39451 52.1471C5.174 51.5606 3.8313 51.2732 2.47762 51.3088C2.2805 51.3088 2.09145 51.2305 1.95207 51.0911C1.81268 50.9517 1.73438 50.7626 1.73438 50.5655C1.73438 50.3684 1.81268 50.1794 1.95207 50.04C2.09145 49.9006 2.2805 49.8223 2.47762 49.8223C4.03328 49.7845 5.57591 50.1143 6.98019 50.7848C8.20044 51.3725 9.54311 51.6611 10.8971 51.6269C12.2515 51.6611 13.5947 51.3725 14.8155 50.7848C16.22 50.1142 17.7629 49.7845 19.3188 49.8223C20.8752 49.7845 22.4185 50.1143 23.8236 50.7848C25.0446 51.3724 26.388 51.6611 27.7427 51.6269C29.0971 51.6611 30.4403 51.3724 31.6611 50.7848C33.0656 50.1142 34.6085 49.7845 36.1644 49.8223C37.7211 49.7848 39.2649 50.1142 40.6707 50.784C41.9032 51.3394 43.2397 51.6265 44.5916 51.6265C45.9435 51.6265 47.28 51.3394 48.5126 50.784C49.918 50.1138 51.4616 49.7843 53.0182 49.8223C53.2153 49.8223 53.4043 49.9006 53.5437 50.04C53.6831 50.1794 53.7614 50.3684 53.7614 50.5655C53.7614 50.7626 53.6831 50.9517 53.5437 51.0911C53.4043 51.2305 53.2153 51.3088 53.0182 51.3088C51.6627 51.2742 50.3186 51.5629 49.0968 52.1509C47.6915 52.8214 46.1479 53.1511 44.5913 53.1134Z" fill="#0D775E"/>
<path d="M27.7481 46.7943C27.551 46.7943 27.362 46.716 27.2226 46.5766C27.0832 46.4372 27.0049 46.2481 27.0049 46.051V15.0362C27.0049 14.8391 27.0832 14.65 27.2226 14.5107C27.362 14.3713 27.551 14.293 27.7481 14.293C27.9452 14.293 28.1343 14.3713 28.2737 14.5107C28.4131 14.65 28.4914 14.8391 28.4914 15.0362V46.051C28.4914 46.2481 28.4131 46.4372 28.2737 46.5766C28.1343 46.716 27.9452 46.7943 27.7481 46.7943Z" fill="#0D775E"/>
<path d="M39.4869 20.3704C39.2898 20.3704 39.1008 20.2921 38.9614 20.1527C38.822 20.0133 38.7437 19.8243 38.7437 19.6272V11.3266C38.7435 11.0944 38.6512 10.8718 38.4871 10.7075C38.3229 10.5432 38.1004 10.4507 37.8681 10.4504H17.6281C17.3959 10.4507 17.1733 10.5432 17.0092 10.7075C16.8451 10.8718 16.7528 11.0944 16.7526 11.3266V19.6272C16.7526 19.8243 16.6743 20.0133 16.5349 20.1527C16.3955 20.2921 16.2065 20.3704 16.0094 20.3704C15.8122 20.3704 15.6232 20.2921 15.4838 20.1527C15.3444 20.0133 15.2661 19.8243 15.2661 19.6272V11.3266C15.2667 10.7003 15.5157 10.0998 15.9585 9.65682C16.4014 9.21386 17.0018 8.96465 17.6281 8.96387H37.8681C38.4945 8.96465 39.0949 9.21386 39.5377 9.65682C39.9806 10.0998 40.2296 10.7003 40.2302 11.3266V19.6272C40.2302 19.8243 40.1519 20.0133 40.0125 20.1527C39.8731 20.2921 39.684 20.3704 39.4869 20.3704Z" fill="#0D775E"/>
<path d="M30.4297 10.4504H25.0665C24.8694 10.4504 24.6803 10.3721 24.5409 10.2327C24.4016 10.0933 24.3232 9.90426 24.3232 9.70714V3.33309C24.3232 3.13597 24.4016 2.94692 24.5409 2.80753C24.6803 2.66815 24.8694 2.58984 25.0665 2.58984H30.4297C30.6269 2.58984 30.8159 2.66815 30.9553 2.80753C31.0947 2.94692 31.173 3.13597 31.173 3.33309V9.70714C31.173 9.90426 31.0947 10.0933 30.9553 10.2327C30.8159 10.3721 30.6269 10.4504 30.4297 10.4504ZM25.8097 8.9639H29.6865V4.07633H25.8097V8.9639Z" fill="#0D775E"/>
</svg>
