<svg width="51" height="51" viewBox="0 0 51 51" fill="none" xmlns="http://www.w3.org/2000/svg">
<g clip-path="url(#clip0_110_1354)">
<path d="M44.6648 49.7653H6.80452C5.38933 49.7614 4.03343 49.1965 3.03412 48.1944C2.0348 47.1924 1.47363 45.8349 1.47363 44.4197V14.4712C1.47363 13.0547 2.03582 11.6962 3.03672 10.6939C4.03762 9.69161 5.3954 9.12756 6.81187 9.12561H14.9001C15.0951 9.12561 15.2821 9.20308 15.42 9.34097C15.5579 9.47887 15.6354 9.66589 15.6354 9.8609C15.6354 10.0559 15.5579 10.2429 15.42 10.3808C15.2821 10.5187 15.0951 10.5962 14.9001 10.5962H6.81187C5.78543 10.5981 4.8017 11.0073 4.07658 11.7338C3.35147 12.4602 2.94422 13.4448 2.94422 14.4712V44.4197C2.94421 45.4449 3.35045 46.4283 4.07398 47.1546C4.7975 47.8809 5.77935 48.2908 6.80452 48.2947H44.6648C45.6913 48.2928 46.675 47.8837 47.4001 47.1572C48.1252 46.4307 48.5325 45.4462 48.5325 44.4197V14.4712C48.5305 13.4441 48.1216 12.4596 47.3954 11.7333C46.6691 11.007 45.6846 10.5981 44.6575 10.5962H36.5692C36.3742 10.5962 36.1872 10.5187 36.0493 10.3808C35.9114 10.2429 35.8339 10.0559 35.8339 9.8609C35.8339 9.66589 35.9114 9.47887 36.0493 9.34097C36.1872 9.20308 36.3742 9.12561 36.5692 9.12561H44.6575C46.0746 9.12756 47.4331 9.69138 48.4352 10.6934C49.4373 11.6955 50.0011 13.0541 50.003 14.4712V44.4197C50.0011 45.8356 49.4383 47.193 48.4378 48.1949C47.4373 49.1968 46.0807 49.7614 44.6648 49.7653Z" fill="#ACACAC"/>
<path d="M42.7607 46.0889H8.71657C7.77068 46.085 6.86475 45.707 6.19659 45.0375C5.52843 44.3679 5.15232 43.4612 5.15039 42.5153V16.0447C5.15697 15.2295 5.46904 14.4463 6.02496 13.85C6.58088 13.2536 7.34022 12.8874 8.15301 12.8236C8.96581 12.7599 9.77295 13.0033 10.415 13.5057C11.0571 14.0082 11.4874 14.7331 11.621 15.5374C12.1491 18.9032 13.8621 21.9697 16.4512 24.1842C19.0403 26.3987 22.3353 27.6156 25.7423 27.6156C29.1493 27.6156 32.4443 26.3987 35.0334 24.1842C37.6225 21.9697 39.3355 18.9032 39.8636 15.5374C39.9869 14.7234 40.4138 13.9862 41.0585 13.4742C41.7032 12.9622 42.5178 12.7133 43.3386 12.7776C44.1594 12.8419 44.9254 13.2146 45.4825 13.8207C46.0396 14.4268 46.3466 15.2215 46.3416 16.0447V42.5153C46.3396 43.4638 45.9615 44.3727 45.2902 45.0426C44.6188 45.7126 43.7091 46.0889 42.7607 46.0889ZM8.40039 14.28C7.92779 14.282 7.4752 14.4711 7.14171 14.8059C6.80821 15.1408 6.62097 15.5942 6.62098 16.0668V42.5374C6.62677 43.09 6.84988 43.6182 7.24205 44.0076C7.63421 44.397 8.16391 44.6164 8.71657 44.6183H42.7607C43.3171 44.6163 43.8501 44.3939 44.2429 43.9997C44.6357 43.6056 44.8563 43.0718 44.8563 42.5153V16.0447C44.846 15.6005 44.6712 15.1759 44.3658 14.8531C44.0604 14.5303 43.6461 14.3324 43.2031 14.2976C42.7601 14.2628 42.3199 14.3937 41.9679 14.6648C41.6158 14.936 41.3769 15.3281 41.2974 15.7653C40.7092 19.4717 38.8181 22.8467 35.9641 25.2835C33.1101 27.7203 29.4804 29.0591 25.7276 29.0591C21.9748 29.0591 18.3451 27.7203 15.4911 25.2835C12.6371 22.8467 10.746 19.4717 10.1577 15.7653C10.0881 15.3498 9.87325 14.9724 9.55144 14.7004C9.22963 14.4284 8.82174 14.2795 8.40039 14.28Z" fill="#ACACAC"/>
<path d="M25.7382 25.4271C23.3459 25.4271 21.0073 24.7177 19.0182 23.3886C17.0291 22.0595 15.4788 20.1705 14.5633 17.9603C13.6478 15.7501 13.4083 13.3181 13.875 10.9718C14.3417 8.62545 15.4937 6.47022 17.1853 4.77862C18.8769 3.08702 21.0321 1.93503 23.3784 1.46832C25.7248 1.00161 28.1568 1.24114 30.367 2.15663C32.5771 3.07211 34.4662 4.62244 35.7953 6.61155C37.1244 8.60066 37.8338 10.9392 37.8338 13.3315C37.8299 16.5383 36.5543 19.6126 34.2867 21.8801C32.0192 24.1476 28.9449 25.4232 25.7382 25.4271ZM25.7382 2.70649C23.6367 2.70649 21.5825 3.32964 19.8352 4.49713C18.088 5.66462 16.7261 7.32402 15.922 9.26548C15.1178 11.2069 14.9074 13.3433 15.3173 15.4043C15.7273 17.4654 16.7392 19.3586 18.2252 20.8445C19.7111 22.3304 21.6043 23.3424 23.6653 23.7523C25.7264 24.1623 27.8627 23.9519 29.8042 23.1477C31.7456 22.3435 33.405 20.9817 34.5725 19.2344C35.74 17.4872 36.3632 15.4329 36.3632 13.3315C36.3612 10.5142 35.2412 7.81279 33.249 5.82064C31.2569 3.82848 28.5555 2.70844 25.7382 2.70649Z" fill="#ACACAC"/>
<path d="M25.7382 7.11826C25.5432 7.11826 25.3562 7.04079 25.2183 6.9029C25.0804 6.765 25.0029 6.57798 25.0029 6.38297V4.61826C25.0029 4.42325 25.0804 4.23622 25.2183 4.09833C25.3562 3.96043 25.5432 3.88297 25.7382 3.88297C25.9332 3.88297 26.1203 3.96043 26.2582 4.09833C26.3961 4.23622 26.4735 4.42325 26.4735 4.61826V6.38297C26.4735 6.57798 26.3961 6.765 26.2582 6.9029C26.1203 7.04079 25.9332 7.11826 25.7382 7.11826Z" fill="#ACACAC"/>
<path d="M22.2746 8.07414C22.1463 8.07336 22.0204 8.03902 21.9095 7.97452C21.7985 7.91003 21.7064 7.81762 21.6422 7.70649L20.7452 6.14767C20.6487 5.97972 20.6224 5.78049 20.6719 5.59325C20.7215 5.40601 20.8429 5.24589 21.0099 5.14767C21.0934 5.09875 21.1857 5.06678 21.2815 5.05361C21.3774 5.04044 21.4749 5.04632 21.5685 5.07091C21.6621 5.0955 21.7499 5.13832 21.8269 5.19692C21.9039 5.25551 21.9686 5.32873 22.0172 5.41237L22.9143 6.9712C22.9629 7.05512 22.9944 7.14783 23.0071 7.24399C23.0197 7.34015 23.0132 7.43786 22.9879 7.53149C22.9626 7.62513 22.9191 7.71283 22.8597 7.78956C22.8004 7.86628 22.7265 7.93051 22.6422 7.97855C22.5302 8.04206 22.4034 8.07503 22.2746 8.07414Z" fill="#ACACAC"/>
<path d="M19.7459 10.6036C19.6171 10.6044 19.4903 10.5715 19.3782 10.508L17.8194 9.61091C17.7338 9.56227 17.6588 9.49694 17.5989 9.41878C17.539 9.34062 17.4954 9.25122 17.4708 9.1559C17.4461 9.06057 17.4408 8.96126 17.4552 8.86385C17.4696 8.76645 17.5035 8.67293 17.5547 8.58885C17.6529 8.42191 17.813 8.30047 18.0003 8.25091C18.1875 8.20135 18.3868 8.22766 18.5547 8.32414L20.1135 9.2212C20.2817 9.3182 20.4047 9.47778 20.4557 9.66512C20.5066 9.85247 20.4815 10.0524 20.3856 10.2212C20.3227 10.3361 20.2302 10.4322 20.1178 10.4994C20.0053 10.5666 19.8769 10.6026 19.7459 10.6036Z" fill="#ACACAC"/>
<path d="M18.8195 14.0668H17.0253C16.8303 14.0668 16.6433 13.9893 16.5054 13.8514C16.3675 13.7135 16.29 13.5265 16.29 13.3315C16.29 13.1365 16.3675 12.9494 16.5054 12.8116C16.6433 12.6737 16.8303 12.5962 17.0253 12.5962H18.8195C19.0145 12.5962 19.2015 12.6737 19.3394 12.8116C19.4773 12.9494 19.5547 13.1365 19.5547 13.3315C19.5547 13.5265 19.4773 13.7135 19.3394 13.8514C19.2015 13.9893 19.0145 14.0668 18.8195 14.0668Z" fill="#ACACAC"/>
<path d="M18.1868 18.4197C18.0263 18.4181 17.8708 18.364 17.7439 18.2657C17.6171 18.1674 17.5259 18.0303 17.4842 17.8754C17.4425 17.7204 17.4527 17.556 17.5132 17.4074C17.5737 17.2587 17.6811 17.134 17.8191 17.0521L19.378 16.155C19.4614 16.1061 19.5538 16.0741 19.6496 16.061C19.7455 16.0478 19.843 16.0537 19.9366 16.0783C20.0302 16.1029 20.118 16.1457 20.195 16.2043C20.272 16.2629 20.3367 16.3361 20.3853 16.4197C20.4789 16.5879 20.5028 16.786 20.4519 16.9716C20.401 17.1572 20.2795 17.3154 20.1132 17.4124L18.5544 18.3094C18.4438 18.3781 18.3169 18.4162 18.1868 18.4197Z" fill="#ACACAC"/>
<path d="M33.2823 18.4197C33.1535 18.4206 33.0267 18.3877 32.9147 18.3241L31.3558 17.4124C31.2722 17.3637 31.199 17.299 31.1404 17.222C31.0818 17.145 31.039 17.0572 31.0144 16.9636C30.9898 16.8701 30.9839 16.7725 30.9971 16.6767C31.0103 16.5808 31.0422 16.4885 31.0911 16.405C31.1894 16.2381 31.3495 16.1166 31.5367 16.0671C31.724 16.0175 31.9232 16.0438 32.0911 16.1403L33.65 17.0374C33.8181 17.1344 33.9411 17.294 33.9921 17.4813C34.0431 17.6686 34.0179 17.8685 33.922 18.0374C33.8591 18.1523 33.7667 18.2484 33.6542 18.3156C33.5417 18.3828 33.4133 18.4188 33.2823 18.4197Z" fill="#ACACAC"/>
<path d="M34.4518 14.0668H32.6503C32.4553 14.0668 32.2683 13.9893 32.1304 13.8514C31.9925 13.7135 31.915 13.5265 31.915 13.3315C31.915 13.1365 31.9925 12.9494 32.1304 12.8116C32.2683 12.6737 32.4553 12.5962 32.6503 12.5962H34.4518C34.6468 12.5962 34.8338 12.6737 34.9717 12.8116C35.1096 12.9494 35.1871 13.1365 35.1871 13.3315C35.1871 13.5265 35.1096 13.7135 34.9717 13.8514C34.8338 13.9893 34.6468 14.0668 34.4518 14.0668Z" fill="#ACACAC"/>
<path d="M31.7239 10.6036C31.5634 10.6019 31.4079 10.5478 31.281 10.4495C31.1542 10.3512 31.063 10.2142 31.0213 10.0592C30.9796 9.9042 30.9898 9.73985 31.0503 9.59121C31.1108 9.44256 31.2182 9.31778 31.3562 9.2359L32.9151 8.33884C32.9985 8.28992 33.0909 8.25796 33.1867 8.24479C33.2826 8.23162 33.3801 8.2375 33.4737 8.26209C33.5673 8.28668 33.6551 8.3295 33.7321 8.3881C33.8091 8.44669 33.8738 8.51991 33.9224 8.60355C33.971 8.68747 34.0026 8.78018 34.0152 8.87634C34.0278 8.9725 34.0213 9.07021 33.996 9.16385C33.9707 9.25748 33.9272 9.34518 33.8679 9.42191C33.8085 9.49864 33.7346 9.56287 33.6504 9.6109L32.0915 10.508C31.9795 10.5715 31.8527 10.6044 31.7239 10.6036Z" fill="#ACACAC"/>
<path d="M29.1943 8.07414C29.065 8.07466 28.9378 8.04106 28.8256 7.97673C28.7134 7.91241 28.6202 7.81963 28.5553 7.70776C28.4904 7.5959 28.4562 7.4689 28.4561 7.33958C28.4559 7.21026 28.4899 7.08319 28.5546 6.9712L29.459 5.41238C29.5607 5.25233 29.7204 5.13778 29.9046 5.09266C30.0888 5.04754 30.2833 5.07534 30.4475 5.17025C30.6117 5.26516 30.7328 5.41984 30.7857 5.60198C30.8385 5.78412 30.8189 5.97963 30.731 6.14767L29.834 7.7065C29.7692 7.8187 29.6759 7.9118 29.5636 7.97636C29.4512 8.04093 29.3238 8.07466 29.1943 8.07414Z" fill="#ACACAC"/>
<path d="M25.7381 15.4124C25.3265 15.4124 24.9242 15.2903 24.582 15.0617C24.2398 14.833 23.9731 14.508 23.8156 14.1278C23.6581 13.7476 23.6169 13.3292 23.6972 12.9255C23.7775 12.5219 23.9757 12.1511 24.2667 11.8601C24.5577 11.5691 24.9285 11.3709 25.3321 11.2906C25.7358 11.2103 26.1542 11.2515 26.5344 11.409C26.9147 11.5665 27.2396 11.8332 27.4683 12.1754C27.6969 12.5176 27.819 12.9199 27.819 13.3315C27.819 13.8834 27.5998 14.4127 27.2095 14.8029C26.8193 15.1931 26.29 15.4124 25.7381 15.4124ZM25.7381 12.7212C25.5762 12.7212 25.421 12.7855 25.3066 12.9C25.1921 13.0144 25.1278 13.1696 25.1278 13.3315C25.1278 13.4934 25.1921 13.6486 25.3066 13.763C25.421 13.8775 25.5762 13.9418 25.7381 13.9418C25.9 13.9418 26.0552 13.8775 26.1697 13.763C26.2841 13.6486 26.3484 13.4934 26.3484 13.3315C26.3484 13.1696 26.2841 13.0144 26.1697 12.9C26.0552 12.7855 25.9 12.7212 25.7381 12.7212Z" fill="#ACACAC"/>
<path d="M26.6864 13.1109C26.5418 13.1103 26.4007 13.0671 26.2805 12.9867C26.1604 12.9064 26.0666 12.7924 26.0109 12.659C25.9552 12.5256 25.94 12.3788 25.9673 12.2368C25.9946 12.0949 26.0631 11.9641 26.1643 11.8609L28.6055 9.41972C28.6738 9.35081 28.7552 9.2961 28.8448 9.25877C28.9344 9.22144 29.0305 9.20222 29.1275 9.20222C29.2246 9.20222 29.3207 9.22144 29.4103 9.25877C29.4999 9.2961 29.5812 9.35081 29.6496 9.41972C29.7865 9.55749 29.8634 9.74385 29.8634 9.93811C29.8634 10.1324 29.7865 10.3187 29.6496 10.4565L27.2084 12.8977C27.1397 12.9658 27.0582 13.0197 26.9686 13.0563C26.8791 13.0929 26.7831 13.1115 26.6864 13.1109Z" fill="#ACACAC"/>
</g>
<defs>
<clipPath id="clip0_110_1354">
<rect width="50" height="50" fill="white" transform="translate(0.738281 0.50061)"/>
</clipPath>
</defs>
</svg>
